<?xml version="1.0" encoding="UTF-8" standalone="no"?>
<!DOCTYPE svg PUBLIC "-//W3C//DTD SVG 1.1//EN" "http://www.w3.org/Graphics/SVG/1.1/DTD/svg11.dtd">
<svg width="100%" height="100%" viewBox="0 0 959 593" version="1.1" xmlns="http://www.w3.org/2000/svg" xmlns:xlink="http://www.w3.org/1999/xlink" xml:space="preserve" xmlns:serif="http://www.serif.com/" style="fill-rule:evenodd;clip-rule:evenodd;stroke-linejoin:round;stroke-miterlimit:2;">
    <g>
        <path d="M643,467.4L643.4,460.1L642.5,458.9L640.8,458.2L638.3,455.4L638.8,452.5L687.6,447.4L686.9,445.2L685.4,443.7L684.9,442.3L685.5,436L683.1,430.3L683.6,427.7L683.9,424L686.1,420.2L685.9,419.1L684.2,418.1L684.2,414.9L682.4,413L679.5,406.9L666.6,361.1L620.9,365.1L622.2,367.1L620.9,434.1L625.3,467.3L626.2,466.8L627.5,466.9L628.1,467.3L628.9,467.2L630.9,463.4L630.9,461.1L632,460L633.4,460.5L636.8,466.9L636.8,467.8L633.5,470L637,469.6L641.9,468L643,467.4Z" style="fill:rgb(230,230,230);fill-rule:nonzero;stroke:rgb(148,148,148);stroke-width:0.5px;"/>
        <path d="M15.8,572L18.2,572L18.9,572.7L17.9,573.9L16,574.1L13.5,575.4L9.8,575.3L12,574.4L12.3,573.3L14.8,573L15.8,572ZM24.1,570.3L25.4,570.8L26.3,570.8L26.8,572L27.1,571.4L28,571.6L29.1,573.1L29.1,573.6L24.9,575.5L22.5,575.4L21.5,574.9L20.4,575.6L18.4,575.6L17.3,574.2L22,573.7L24.1,570.3ZM29.5,570.2L30.5,570.3L31.2,571L31.2,572L29.9,572.1L29,571L29.5,570.2ZM32,570.5L33.3,570.4L33.2,571.4L32.1,572L32,570.5ZM32.3,572.7L35.7,572.6L35.9,573.7L34.6,573.8L34.3,573.3L33.5,573.9L33.1,573.3L32.2,573.1L32.3,572.7ZM198.6,580.3L200.7,580.4L199.7,582.3L198.6,582.2L198.2,581.4L198.7,580.1M197.6,577.2L198.2,575.9L198,573.6L200.4,573.1L204.9,577.5L206.2,580.9L208.1,582.5L208.4,587.6L207,587.6L205.7,585.3L202.6,582.9L202,582.9L203.1,585.7L204.8,585.9L205,588L204.1,588.1L200,583.7L199.9,582.8L201.8,581.8L201.8,580.8L201.3,580L199.7,579.4L198,578.1L199.4,578.2L199.9,577.8L199.3,576.9L198.7,577.4L197.6,577.2ZM194,568.1L195.3,568.2L197.7,570.7L197.5,571.5L196.7,571.4L196.6,573.2L197.1,573.7L197.1,575.2L196.3,575.5L195.9,576.7L195.1,576.3L194.7,574.1L195.8,572.7L193.7,570.5L193.8,569.3L194,568.1ZM195.5,566.6L197.4,566.8L199.9,566.9L203.3,570.1L203.1,570.6L202,571.2L200.9,571L200.8,570.3L199.6,568.7L199.3,569.4L200.3,570.7L200.1,571.9L199.3,571.8L198,572L197.9,570.3L195.3,567.5L195.5,566.6ZM182.8,557.7L183.7,557.3L185.3,557.3L186,556.8L190.1,559L190.2,560.5L189.7,561L188.9,561L187.5,560.3L188.6,561.6L190.4,561.6L190.9,563.6L190,563.6L187.8,562.1L186.7,561.9L187.3,563.2L187.4,564.1L188.2,563.5L189.9,564.7L191.2,564.6L191,565.4L192.9,569.7L192.9,573.1L193.3,575.2L192.5,575.5L191.3,573.5L190.8,572L189.2,570.4L189,567.7L188.4,566L187.7,566L188,567.1L188,567.6L186.6,568.6L186.7,565.3L185.1,563.7L183.8,561.4L182.6,560.2L182.8,557.7ZM190,555.4L191.1,557.2L193.5,557.1L194.5,559.2L193.9,559.8L195.9,563L195.9,564.3L194.7,565.1L194.7,565.8L192.7,567.7L192.2,566.3L192.1,565L192.7,564.3L192.7,563.2L191.2,561.3L190.7,557.6L189.8,556.1L190,555.4ZM133.3,537.1L129.3,541.2L129.3,542.8L131.4,542L132.2,540.1L134.4,537.7L133.3,537.1ZM101.7,553.7L101.7,554.3L103.5,555.5L103.7,554.1L104.3,555L107.8,555.1L108.5,554.5L108.7,552.7L108.2,552L106.8,552L106.8,551.2L107.2,550.6L107.2,550.2L105.7,549.9L102.4,553.5L101.7,553.7ZM93.6,559.9L95.1,565.7L97.2,565.7L99.6,563.2L99.9,564.4L106.2,560.4L106.9,559.4L105.9,558.3L105.9,557.6L106.4,556.3L105.5,556.2L103.5,557.2L103.5,556L100.8,555.4L98.4,555.7L98.2,559.1L97.4,557.1L95.9,557L94.9,557.6L93.6,559.9ZM91.4,568.1L91.5,567.4L93.6,566.1L94.2,566.4L95.5,566.6L96.8,567.8L94.6,567.6L94.2,567L93.2,567.6L91.4,568.1ZM86.2,571.4L85.1,572.2L86.6,573.6L87.4,572.9L87.3,571.6L86.2,571.4ZM79.9,563.5L81.3,563.6L81.7,564.2L79.9,564.3L79.9,563.5ZM66,575.4L66,575.9L66.7,576L66.6,575.4L66,575.4ZM65.6,572.2L64.6,573.2L64.6,573.7L65.3,574.8L66.3,573.8L65.6,573.7L65.6,572.2ZM63.6,571.4L63.3,572.4L62,572.5L61.6,572.7L61.6,574L61.1,574.9L61.7,574.9L62.4,574L63.2,573.9L64.1,572.9L64.3,571.6L63.6,571.4ZM59.2,569.4L59,571.2L60.4,572L61.6,571.4L61.6,570.4L63.3,570.1L63.2,569.5L62.3,569.3L61.6,569.9L60.7,569.4L59.2,569.4ZM54.3,569.3L55.3,570L55,571.2L53.6,570.1L54.3,569.3ZM50.1,570.6L51.5,570.7L50.8,571.5L50.1,570.6ZM46.6,573.6L48.4,574.7L46.7,574.8L46.6,573.6ZM21.2,542.4L22.4,543L21.6,543.6L21.2,542.4ZM20.5,536.1L20.9,537.3L21.7,536.1L20.5,536.1ZM44.8,516.8L46.3,516.7L47.2,517.1L48.3,516.6L49.6,516.5L51.2,517.3L52,519.2L51.9,520.1L50.7,522.1L48.3,521.9L46.2,520.1L45.2,519.7L44.1,517.7L44.8,516.8ZM23.7,502.4L23.8,504.3L25.8,506.3L25.8,506.8L25,506.6L23.3,505.8L23,504.7L22.7,503.1L23.7,502.4ZM42,479.1L42,480.3L43.9,482.1L46.2,482.1L46.8,483.2L46.8,484.8L48.9,486.7L50.7,487.9L50.6,488.6L49.9,489.7L48.5,488.5L46.4,488.6L45.6,487.8L44.7,485.7L43.2,483.5L40.6,483.4L39.6,482.7L40.6,480.6L42,479.1ZM58.8,474.6L59.8,474.6L59.9,475.7L58.9,475.7L58.8,474.6ZM75,494.3L75.9,494.4L75.9,495.6L74.2,495.1L75,494.3ZM202.8,572L201.6,572.4L201.5,573.5L202.7,573.5L202.8,572ZM45.2,567.5L43.9,567.1L39.8,567.7L37,569.1L36.9,571L38.8,571.7L40.3,570.8L42,570.7L46.7,572.1L46.8,570.8L45.2,569.7L45.2,567.5ZM47.3,569.8L46.9,568.4L48.1,568.6L48.2,570L50,570L50.4,567.5L50.7,569.9L53.2,569.8L56.4,566.5L57.2,566.6L56.5,567.9L57.9,568.8L62.1,568.6L64.7,567.4L66.1,567.3L66.4,568.8L67,568.3L67.4,566.9L73.3,567.1L75.2,565.5L73.9,564.4L74.5,563.2L77.1,563.4L76.9,562.2L79.4,562.4L80.1,561.3L81.2,561.5L85.8,559.6L86,557.9L91.6,555.5L93.6,553.6L94.8,553L96.1,553.8L98.4,552.9L99.5,551L100,549.7L101.7,548.8L103.2,548.1L103.6,546.7L102.5,545L100.3,544.8L100.1,543.5L100.9,541.9L102.3,541.7L103.6,540.2L105.5,540.1L108.9,536.9L109.3,535.5L110.8,533.2L114.6,529.1L117.1,528.2L119,527.3L121.1,528.1L122.5,530.7L121,530.7L119.6,529.2L116.6,531.2L114.9,531.3L114.7,534.4L111.6,539.3L112.2,541.3L114.5,541.3L113.9,542.3L112.5,542.4L110.1,544.2L110.1,545.1L112,546.1L115.4,545.5L116.8,543.8L118.2,543.9L121.2,542.2L121.7,539.9L123.3,539.8L129.6,540.6L130.6,539.5L131.6,535L130,536.1L130.6,533.9L129,532.5L129.8,531L129.9,532.5L133.3,532.5L134,531.5L135.6,531.4L135.3,533.1L137.2,533.2L135.3,534.5L139.4,535.6L135.9,536L134.6,537.2L135.5,538.6L140.1,536.9L142.4,538.6L143.1,537.7L143.7,539.1L147.7,541.4L150.6,541.4L154.5,540.9L158.8,542L160.8,543.9L165.3,544.3L167.1,542.8L167.9,545.2L166.1,545.9L167.3,547.1L174.7,550.9L176.1,553.4L181.5,557.5L184.8,555.5L184.2,553.3L180.7,551.3L183.8,552.5L184.3,551.8L185.2,553.1L185.2,555.8L187.3,555.2L189.4,557L186.9,547.2L188.1,548.5L189.5,554.5L191.7,557L194.1,556.6L195.9,560.1L196.8,560.1L197.4,565.7L200.8,566.2L202.4,568.4L204.2,569.5L204.6,572.3L202.8,574.9L205.7,576.5L206.9,574.1L206.7,577.2L205.9,578.1L207.3,579.8L208,577.4L207.8,576.2L208.6,576.4L209.2,578.7L208.2,580.1L208.8,582.7L209.3,583.1L209.6,581.5L210.3,582.1L210,584.1L211.2,584.3L210.8,585.2L212.5,585.1L212.5,584.1L211.5,584.1L211.6,582.4L210.8,581.8L212.5,581.5L213,580.7L213,579.1L213.5,580.4L212.9,582.2L214.1,586.1L215.9,586.2L218.1,582L218.2,580.1L216.9,576.1L216.8,574.9L217.3,573.7L216.6,573L214.9,573.1L212.4,571.1L210.7,571.1L208.7,569.7L207.2,569.7L206.7,568.1L205.3,567.8L205.1,566.3L204.1,565.8L204.2,564.1L199.1,556.7L197.3,555.2L197.3,554L193,550.5L192.3,549.4L190.7,547.4L188.8,546.8L188.8,544.6L187.6,543.3L185.9,542.6L183.8,543.9L182.2,546L181.8,548.4L180.3,548.5L177.8,551.2L177,550.9L177,548.4L174.6,546.2L172.3,544.2L171.8,542.2L169.3,540.9L169.5,538.7L166.7,538.6L166,539.7L164.8,539.7L164.1,539L162.9,539.8L161.1,538.6L161.1,452.8L154.2,448.7L152.4,448.2L150.2,449.3L148,449.4L145.7,447.8L141.4,447.2L135.6,443.6L129.9,443.2L127.9,443.7L127.7,441.9L125.9,441.2L127,440.2L126.8,439.3L123.6,438.2L121.2,438.2L120.8,438.6L119.9,438L120,435.4L119.2,434.5L116.7,437.4L115.9,437.3L115.9,436.5L117.6,435.7L117.6,434.9L115.7,432.5L114.6,432.4L110.1,435.5L106.2,435.5L106.6,434.6L104.8,434.5L99.6,437.9L97.8,437.9L97.2,437.1L94.5,438.6L90.9,442.3L88.1,445L86.6,446.2L84,446.3L81.8,445.9L79.5,444.6L76.7,448.5L76.6,450.9L79.2,453.3L81.3,457.8L81.5,463.1L84.4,465.1L87.8,465.5L88.5,466.3L87,468.6L87.7,471.3L86,468.7L86,466.3L84.5,466L84.6,467.2L85.3,469.3L88.2,473L86.8,473L84.6,474.1L78.4,471.6L78.3,469.6L79.7,468.3L79.7,466.9L77.6,466.4L75.3,466.6L70.5,466.8L72,469.1L70.1,467.3L61.7,468.5L60.9,470L65.8,474.7L65,476.1L64.7,478.1L64,478.9L63.9,480.8L68.3,484.4L72.4,484.6L77,486.5L79,486.5L79.8,485.9L83.6,486L83.7,485.2L84.9,486.3L85,488.3L82.5,488.2L82.6,491.5L83.1,494.7L80.2,497.4L78.3,497.3L76.3,496.5L75.3,496.6L72.2,498.7L70.5,498.9L69.1,496.1L66,496.1L63.8,498.1L63.3,499.9L60,501.7L54.7,506L54.4,509.1L55.1,511.3L56.1,512.5L57.1,512.1L58,513.1L57.2,513.7L55.7,514.6L56.8,516.1L54.2,517.2L55,519.4L56.7,521.7L57.5,525.8L61.5,527.3L64.1,526.5L65.8,525.4L66.3,527.5L66.6,531.9L64.7,533.3L64.7,537.7L64.1,538.6L62.4,538.6L64.1,539.8L66.2,539.7L66.6,538.7L71.2,538.1L73.2,540.7L74.5,540L75.8,545.1L76.8,545.6L77.8,544.9L77.9,542.5L78.8,541.5L79.5,542.6L79.7,544.2L81.3,544.6L86,543.4L86.2,544.6L84.2,545.7L82.6,547.4L79.8,554.4L75.5,556.4L74.1,557.9L73.8,559.3L72.8,558.7L63.5,562L61.7,566.1L60.4,565.7L60.9,564.6L59.4,563.2L55.9,563L50.6,566.2L48.4,567.5L46.1,567.5L45.6,569.9L47.3,569.8Z" style="fill:rgb(169,174,214);fill-rule:nonzero;stroke:rgb(148,148,148);stroke-width:0.5px;"/>
        <path d="M139.6,387.6L142.6,385.4L143.4,383L142.4,381.4L140.6,381.2L139.5,379.6L140.6,372.7L142.2,372.4L144.6,369.2L146.2,362.2L148.6,358.6L153.4,356.9L154.7,355.6L154.3,353.7L152,351.2L150.8,345.4L149.4,343.6L148.1,340.2L149,338.1L150.4,335.1L150.9,332.2L150.4,327.3L151.4,313.7L154.9,313.1L158.6,314.5L159.8,317.2L161.8,317.2L164.2,314.3L167.6,296.8L213.8,305L253.8,311L236.4,435.1L199.1,429.7L134.9,392.2L135.4,389.3L137.4,387.5L139.6,387.6Z" style="fill:rgb(230,230,230);fill-rule:nonzero;stroke:rgb(148,148,148);stroke-width:0.5px;"/>
        <path d="M584.2,367L585.1,364.8L586.3,365.3L587,364.3L586.2,363.6L586.5,362.1L585.4,361.2L586,360.2L585.9,358.7L584.8,358.6L585.6,357.8L586.9,358.6L587.2,357.2L586.8,356.1L586.9,355.4L588.9,356L588.5,354.5L590.1,353.2L589.6,352.3L588.5,352.4L587.9,351.5L588.8,350.6L590.4,350.4L590.9,349.6L592.3,349.4L592.2,348.6L591.3,347.7L591.3,347.2L592.8,347.2L593.2,346.5L591.8,345.5L591.7,344.9L580.5,345.7L583.3,340.6L585,339.1L585,336.9L583.4,334.4L543.6,336.4L504.5,337.1L508.6,361.5L507.9,400.5L510.5,402.8L513.3,401.5L516.5,402.3L516.7,414.2L569,412.9L570.2,411.4L570.7,408.4L569.2,406.1L568.7,403.9L569.6,403.2L569.6,402.4L567.9,401.3L567.8,400.6L569.4,399.7L568.2,398.6L569.9,391.5L573.3,389.9L573.3,389.1L572.2,387.7L575.1,382.3L577,382.3L578.5,381.1L578.2,375.9L581.3,371.4L583.1,370.8L582.6,367.7L584.2,367Z" style="fill:rgb(230,230,230);fill-rule:nonzero;stroke:rgb(148,148,148);stroke-width:0.5px;"/>
        <path d="M69.4,365.6L72.8,370.8L71.4,370.9L69.6,369L69.4,365.6ZM71.3,355.8L73.1,359.9L75.7,360.9L76.4,360.3L75.1,357.8L72.5,355.4L71.3,355.8ZM51.4,336.8L51.4,339.2L53.4,340.4L57.8,340.2L58.8,339.2L55.7,339L51.4,336.8ZM45.5,336.9L48.8,337.4L50.2,339.6L46.4,339.6L45.5,336.9ZM93.4,382.4L92.4,379.4L92.6,376.4L92.2,368.5L90.4,363.7L89.2,362.3L88.6,360.8L81.6,352.2L78,352.3L76,350.4L77.1,348.6L76.4,344.9L74.2,343.7L70.3,343.1L67.5,341.8L66,339.9L61.5,333.3L58.8,331.1L55.1,330.6L52,328.3L47.3,326.8L44.5,326.5L42,324L42.2,321.2L43,316.4L44.8,311.3L43.4,309.7L39.4,300.3L36.7,296.6L36.3,293.6L34.7,291.3L34.9,288.8L32.9,283.8L30,281.1L30.6,274L33,273.2L34.8,270.1L34.4,266.9L33.4,266L30.9,266L28.4,262.7L26.9,259.2L26.9,251.7L28.1,247.5L28.3,245.4L30.8,245.6L30.7,247.2L29.9,247.9L29.9,250.4L33.6,253.6L33.6,248.9L32.2,245.5L32.7,244.4L31.7,242.7L34.5,241.2L32.6,238.2L31.2,238.7L29.7,242.5L30.2,243.8L29.4,244.8L28.5,244.7L23.1,238.6L23.8,233L22.7,229.1L16.2,216.3L17,205.6L19.3,202L19.5,195.6L14,184.5L14.3,179.3L21.2,171.8L22.9,169.4L22.8,168L26.8,158.8L26.9,150.4L27.8,147.9L93.9,166.5L77.5,229.6L78.6,233.1L149,338.1L148.1,340.2L149.4,343.6L150.8,345.4L152,351.2L154.3,353.7L154.7,355.6L153.4,356.9L148.6,358.6L146.2,362.2L144.6,369.2L142.2,372.4L140.6,372.7L139.5,379.6L140.6,381.2L142.4,381.4L143.4,383L142.6,385.4L139.6,387.6L137.4,387.5L93.4,382.4Z" style="fill:rgb(230,230,230);fill-rule:nonzero;stroke:rgb(148,148,148);stroke-width:0.5px;"/>
        <path d="M374.6,323.3L358.1,322.3L306.4,317.5L253.8,311L265.3,222.7L310.2,228.4L347.7,231.8L380.8,234.2L379.4,256.3L374.6,323.3Z" style="fill:rgb(169,174,214);fill-rule:nonzero;stroke:rgb(148,148,148);stroke-width:0.5px;"/>
        <path d="M873.5,178.9L873.9,177.8L870.7,165.5L870.6,165.2L855.7,168.6L855.7,169.3L854.8,169.6L854.3,168.9L843.8,171.3L846.6,187.6L848.4,189.1L844.9,192.5L846.6,194.7L852,190.2L853.7,188.9L854.5,188.9L856.9,185.8L858.3,185.9L861.2,184.8L863.3,184.8L868.6,182.1L871.4,181.2L872.4,180.2L873.9,180.7L873.5,178.9Z" style="fill:rgb(230,230,230);fill-rule:nonzero;stroke:rgb(148,148,148);stroke-width:0.5px;"/>
        <path d="M822.2,226.6L820.6,226.9L819.1,228L817.9,230.1L825.5,257.2L836.4,254.9L834.2,247.3L833.1,247.8L829.8,245.2L829.3,243.5L827.5,242.5L827.3,238.8L825.2,236.6L824.1,235.8L822.9,234.7L822.5,231.5L822.8,229.4L823.8,227.2L822.2,226.6Z" style="fill:rgb(230,230,230);fill-rule:nonzero;stroke:rgb(148,148,148);stroke-width:0.5px;"/>
        <path d="M751.7,445.1L747.7,444.4L746,443.5L743.8,444.9L743.8,447.4L745.2,449.5L744.7,453.8L742.6,454.4L741.6,453.3L741,450.1L690.9,453.4L687.6,447.4L638.8,452.5L638.3,455.4L640.8,458.2L642.5,458.9L643.4,460.1L643,467.4L641.9,468L642.4,468.4L643.4,468.1L644.1,467.3L654.6,464.6L663.8,464.1L671.9,466L680.4,471L682.8,471.8L685,473.8L684.9,476.5L687.3,476.5L689.2,475.5L691.7,475.6L693.7,474.8L696.6,472.8L699.7,469.9L700.8,469.5L701.4,470L702.8,470L703.3,469.2L702.8,468L702.2,467.4L702.4,466.6L704.4,465.5L709.4,465.1L710.2,466.1L711.2,466.2L713.5,467.2L716.5,469L717.7,470.7L718.8,471.9L721.6,473.3L721.6,475.7L724.4,477.6L725.4,477.7L727,479.1L727.7,480.7L728.7,480.9L729.5,483L730.2,483.6L731.2,482.5L734.1,482.6L734.6,484L735.7,484.9L735.7,486.2L738.6,488.4L738.8,498L737,503.8L738,505L737.8,508.4L737,509.8L737.7,511L740,513.3L740.3,514.8L741.1,515.8L740.7,513.9L742,513.3L742.8,509.7L739.8,508.5L739.9,507.9L742.5,507.5L743.4,510.1L744.5,510.7L744.6,508.7L745.7,509L746.3,509.8L746.2,510.5L743.3,514.7L743.1,515.8L741.4,517.7L741.4,518.8L745.1,522.6L750.4,530.5L752.2,532.6L752.2,534.4L755,539L757.3,539.6L758,538.4L755.9,538.7L752.9,534.2L753.1,532.8L754.6,532L754.6,530.5L754,529.2L754.9,528.3L755.3,529.2L756,529.7L756,533.7L754.8,533.1L754,534L755.4,535.6L756.4,538.2L757.6,537.6L759.9,538.8L762,541L763.6,546.1L766.7,550.9L767.5,549.6L770.3,549.1L773.5,550.4L773.8,552.1L777.1,555.9L777.2,557L779.4,559.7L778.7,560.2L778.7,562.9L781.4,564.3L782.9,564.3L785.6,562.5L787.1,562.8L788.2,563.2L790.5,561.5L790.7,560.8L791.9,561.1L794.3,559.4L795.6,557.1L794.9,553.9L794.7,552.6L795.8,548.6L796.4,548.4L797,550L797.8,548.2L797,541L796.6,530.5L795.6,523.7L794.9,522L788.3,510.9L783.1,501.8L780.9,498.5L779.6,494.9L779.4,491.5L780.3,491.2L780.3,490.3L779.2,488.1L775.2,484.1L767.6,474.4L761.9,464L757.6,453.3L757,449.6L755.8,448.6L755.3,444.8L751.7,445.1ZM760.9,579.6L762.6,579.5L761.9,578.5L760.9,579.6ZM768.2,578.5L768.2,577.8L769.8,577.6L773.5,574.3L775,573.7L777.4,572.8L777.7,574.1L779.4,574.9L776.8,576.1L774.4,576.1L770.5,578.6L768.2,578.5ZM785.4,570.9L782.4,572.3L781.4,573.6L782.5,573.7L785.4,570.9ZM789.2,568L788.1,568.3L786.7,570.3L787.8,570.1L789.3,568.5L789.2,568ZM797.5,552.3L795.8,557.9L795,558.9L794,561.5L792.8,563.1L792.1,564.8L790.2,567L790.2,567.9L792.9,565.1L795.3,561.6L795.9,559.6L798,554.7L797.5,552.3Z" style="fill:rgb(230,230,230);fill-rule:nonzero;stroke:rgb(148,148,148);stroke-width:0.5px;"/>
        <path d="M761.8,414.1L761.8,415.5L757.6,421.7L756.4,421.9L757.9,422.4L757.9,424.4L757,425.5L756.4,431.5L754.1,437.7L754.6,439.7L755.3,444.8L751.7,445.1L747.7,444.4L746,443.5L743.8,444.9L743.8,447.4L745.2,449.5L744.7,453.8L742.6,454.4L741.6,453.3L741,450.1L690.9,453.4L687.6,447.4L686.9,445.2L685.4,443.7L684.9,442.3L685.5,436L683.1,430.3L683.6,427.7L683.9,424L686.1,420.2L685.9,419.1L684.2,418.1L684.2,414.9L682.4,413L679.5,406.9L666.6,361.1L689.5,358.2L710.9,355.2L710.8,357.1L708.9,358.1L707.5,361.3L707.7,362.6L713.8,366.4L716.4,366.1L719.5,370.1L719.9,371.8L724.1,376.9L726.7,378.6L728.1,378.8L730.3,380.4L731.4,382.6L733.4,384.2L735.2,384.7L737.9,387.4L738,388.8L740.6,391.6L745.6,393.9L749.2,400.6L749.5,403.3L753.4,405.4L755.9,410.2L756.7,413.3L760.9,413.7L761.8,414.1Z" style="fill:rgb(230,230,230);fill-rule:nonzero;stroke:rgb(148,148,148);stroke-width:0.5px;"/>
        <path d="M317,553.7L316.8,556.9L318.5,558.8L318.6,560L313.8,564.5L313.7,565.7L315.6,568.9L317.3,573.1L317.3,575.7L316.8,576.9L316.9,580.3L321,582.4L322.1,583.5L323.3,582.4L325.4,578.8L329.9,575.9L333.2,575.4L335.7,574.4L337.4,573.2L340.6,569.7L337.8,568.6L336.4,567.2L336.5,565.5L336,564.9L334,564.9L334.2,562.4L333.5,561.2L330.9,558.9L326.4,557L323.6,556.8L320.3,554.1L319.1,553.5L317,553.7ZM301.7,536.7L300.6,538.2L300.5,539.9L303.2,542.3L305.1,542.8L305.7,543.8L306.1,546.8L309.7,547L315,544.4L314.9,541.9L313.5,541.4L310,538.8L308.2,538.5L305.3,539.8L303.8,537.1L301.7,536.7ZM300.2,548.2L301.1,546.8L303.6,546.5L304.2,548.3L300.2,548.2ZM293.2,539.5L294.9,543.5L298,542.9L298.3,540.9L296.9,539.4L293.2,539.5ZM289.1,532.8L288,535.2L293,535.2L297.8,536.8L300.3,535.2L300.5,533.7L295.7,533.9L289.1,532.8ZM273.1,522.2L271.2,524.3L268.3,524.9L269.1,527.1L271.3,529.9L271.4,530.9L273.5,530.6L275.8,530.7L277.5,531.9L281,531.1L281,530.4L280,529.6L279.5,527.5L278.7,527.2L278.2,528.2L277,526.9L277.2,525.5L275.4,522.2L274.3,521.5L273.1,522.2ZM241.3,509.8L237.1,512.7L237.3,515L239.7,516.2L241.6,517.5L244.3,517.9L246.9,515.7L246.7,513.8L247.5,512.1L247.5,510.7L246.5,509.8L241.3,509.8ZM230.5,514.6L230.2,515.8L228.3,516.7L227.7,518.5L228.7,519.3L229.8,517.8L231.7,517.2L232.1,514.6L230.5,514.6Z" style="fill:rgb(230,230,230);fill-rule:nonzero;stroke:rgb(148,148,148);stroke-width:0.5px;"/>
        <path d="M165.3,183.1L140.9,177.7L149.4,140.4L152.3,134.6L152.7,132.5L153.5,131.6L152.6,129.6L149.7,128.4L149.9,124.2L153.9,118.4L156.4,117.6L158,115.3L157.9,113.7L159.7,112.1L162.9,106.6L167.1,101.8L166.6,98.6L163.1,95.5L161.5,91.9L162.6,87.6L161.9,83.6L174.6,27.5L188.8,30.5L184,52.5L187.7,59.9L186.1,64.7L189.7,69.5L191.6,70.2L195.5,78.5L195.5,80.6L197.8,83.6L198.7,83.6L200.1,85.7L203.3,85.7L203.3,87.3L196.2,104.3L195.7,108.4L197.1,108.9L198.7,111.5L201.5,110.1L205.1,107.7L207,109.6L207.5,112.1L207,115.3L209.5,125L212.1,128.5L214.4,129.9L214.8,132.9L214.8,137L217.1,139.3L218.7,137L225.6,138.6L227.7,137.4L236.7,139.1L239.5,135.8L241.3,135.2L242.5,137L244.1,141.1L245,141.2L236.5,196L188.6,187.8L165.3,183.1Z" style="fill:rgb(230,230,230);fill-rule:nonzero;stroke:rgb(148,148,148);stroke-width:0.5px;"/>
        <path d="M623.5,265.9L622.5,271.1L622.5,273.1L624.9,276.6L624.9,277.3L624.6,278.2L625.5,280.1L625.2,282.5L623.6,284.3L622.3,288.5L618.5,293.8L618.4,300.8L617.4,300.8L618.3,302.7L618.3,303.6L616.1,306.3L616.2,307.4L617.7,309.6L617.6,310.5L613.9,311.1L613.3,312.3L612.1,311.7L611.1,312.2L610.7,315.5L612.4,317.3L612,319.7L610.5,320L603.6,317L599.6,320.7L599.9,322.5L597.1,322.5L595.7,321L593.9,317.2L593.9,315.3L594.7,314.7L594.8,313.4L593.1,311.5L592.2,309L589.5,304.9L584.7,303.6L577.3,296.5L576.9,294.1L579.7,286.5L579.3,284.6L580.5,283.5L580.5,282.2L577.7,280.7L574.7,280L571.3,281.2L570,278.9L570.6,277L569.9,274.6L561.3,266.2L559.1,264.7L556.6,258.8L555.4,253.4L556.8,249.7L557.5,249L557.6,246.7L556.9,245.8L557.9,244.3L560.6,243.4L561.6,242.2L561.6,239.8L563.3,237.4L563.8,236.9L563.9,233.4L563,232L562,231.7L560.9,230.1L561.9,226.1L564.9,225.3L567.3,225.3L571.5,223.5L573.2,221.3L573.3,218.9L574.4,217.6L575.7,214.4L575.6,211.8L572.8,208.3L571.6,208.3L570.7,207.2L570.9,205.6L569.2,203.9L566.7,202.6L567.2,202L613.1,199.2L613.2,203.8L616.6,208.4L617.8,212.5L619.4,215.7L623.5,265.9Z" style="fill:rgb(169,174,214);fill-rule:nonzero;stroke:rgb(148,148,148);stroke-width:0.5px;"/>
        <path d="M629.2,214.8L624.1,217.1L619.4,215.7L623.5,265.9L622.5,271.1L622.5,273.1L624.9,276.6L624.9,277.3L624.6,278.2L625.5,280.1L625.2,282.5L623.6,284.3L622.3,288.5L618.5,293.8L618.4,300.8L617.4,300.8L618.3,302.7L619.4,303.5L620,302.5L619.3,300.8L623.9,300.3L624.1,301.5L625.2,301.7L625.6,300.8L625,299.5L625.3,298.7L626.6,299.5L628.3,299.1L630,299.7L633.4,301.8L635.2,299L638.7,296.8L641.7,300.1L643.3,298L643.6,295.3L647.4,293L647.6,294.3L649.5,295.5L652.5,295.3L653.7,294.6L653.8,291.2L656.3,287.5L660.9,283.1L660.8,281.4L662,277.6L664.2,278.6L670.9,274.1L670.5,272.4L669,270.3L670,268.4L663.4,211.2L663.3,209.8L630.9,213.2L629.2,214.8Z" style="fill:rgb(230,230,230);fill-rule:nonzero;stroke:rgb(148,148,148);stroke-width:0.5px;"/>
        <path d="M556.9,183L559,184.6L559.6,185.7L558,189L557.9,191.5L559.9,197L562.6,198.5L565.9,199.2L567.2,202L566.7,202.6L569.2,203.9L570.9,205.6L570.7,207.2L571.6,208.3L572.8,208.3L575.6,211.8L575.7,214.4L574.4,217.6L573.3,218.9L573.2,221.3L571.5,223.5L567.3,225.3L564.9,225.3L561.9,226.1L560.9,230.1L562,231.7L563,232L563.9,233.4L563.8,236.9L563.3,237.4L561.6,239.8L561.6,242.2L560.6,243.4L557.9,244.3L556.9,245.8L557.6,246.7L557.5,249L556.8,249.7L555.3,248.9L554.2,247.8L553.6,246.2L551.9,244.9L537.6,245.7L510.4,246.9L484.5,246.8L482.7,242.4L483.4,240.2L482.6,236.9L482.8,234L481.5,233.3L481.1,227.2L478.3,222.2L478.1,218.5L475.9,214.2L474.6,210.5L474.6,209.1L474,207.4L474,205.1L473.5,204.2L472.8,202.5L472.5,201.2L471.2,200L472.2,195.7L473.9,190.6L473.2,188.6L471.9,188.2L471.5,186.6L472.5,186.1L472.6,185L471.3,183.5L471.4,181.9L473.6,182L501.8,182L538.1,181.1L556.7,180.4L556.9,183Z" style="fill:rgb(85,92,174);fill-rule:nonzero;stroke:rgb(148,148,148);stroke-width:0.5px;"/>
        <path d="M459.1,259.5L415.4,258.3L379.4,256.3L374.6,323.3L442.3,326.2L504.3,326.3L503.8,278.2L500.6,277.5L498,272.8L495.5,270.3L496,268L498.7,265.4L498.8,264.2L497.3,262.1L496.4,263.1L494.4,262.5L491.5,259.5L459.1,259.5Z" style="fill:rgb(169,174,214);fill-rule:nonzero;stroke:rgb(148,148,148);stroke-width:0.5px;"/>
        <path d="M692.1,322.5L671.6,323.9L666.4,324.7L649,325.7L646.4,326.5L623.8,328.5L623.1,327.9L619.4,327.9L620.6,331.1L620,332L596.7,333.5L597.7,330.8L599.1,331.7L599.8,331.3L601,327.2L600,326.2L601,324.2L601.2,323.3L599.9,322.5L599.6,320.7L603.6,317L610.5,320L612,319.7L612.4,317.3L610.7,315.5L611.1,312.2L612.1,311.7L613.3,312.3L613.9,311.1L617.6,310.5L617.7,309.6L616.2,307.4L616.1,306.3L618.3,303.6L618.3,302.7L619.4,303.5L620,302.5L619.3,300.8L623.9,300.3L624.1,301.5L625.2,301.7L625.6,300.8L625,299.5L625.3,298.7L626.6,299.5L628.3,299.1L630,299.7L633.4,301.8L635.2,299L638.7,296.8L641.7,300.1L643.3,298L643.6,295.3L647.4,293L647.6,294.3L649.5,295.5L652.5,295.3L653.7,294.6L653.8,291.2L656.3,287.5L660.9,283.1L660.8,281.4L662,277.6L664.2,278.6L670.9,274.1L670.5,272.4L669,270.3L670,268.4L671.3,268.9L673.5,269L675.4,268.2L678.3,269.4L680.5,272.8L680.5,273.8L684.6,274.5L686.9,274.3L688.8,276.4L691,276.6L691,275.6L692.9,274.8L695.9,275.6L697.1,276.4L698.4,275.7L699.3,275.7L699.9,274L703.3,272.2L703.8,273L704.6,275.9L708.1,277.3L709.3,279.4L709.2,280.5L709.8,281.5L709.2,285.1L711.1,286.7L711.9,287.8L712.9,288.4L712.8,289.3L717.2,294.9L718.6,294.9L720.1,296.7L721.3,297L722.7,296.9L717.8,303.5L714.9,304.5L711.9,307.5L711.5,309.7L709.4,311L709.3,312.7L707.9,314.1L706.1,314.6L705.6,316.5L704.6,316.9L697.7,321.1L692.1,322.5ZM594.1,333.8L593.4,333.1L593.6,332.1L594.7,332.1L595.4,332.8L595.1,333.8L594.1,333.8Z" style="fill:rgb(230,230,230);fill-rule:nonzero;stroke:rgb(148,148,148);stroke-width:0.5px;"/>
        <path d="M602.5,472.8L601.3,471L601.6,469.7L596.8,462.9L597.7,458.3L598.7,456.9L598.8,455.5L562.8,457.5L564.5,445.6L566.9,440.8L572.9,432.4L571.1,429.9L573.1,429.9L573.1,426.6L570.7,424.1L571.2,422.4L570,421.4L568.4,414.3L569,412.9L516.7,414.2L517.2,434.1L517.9,437.5L520.5,440.3L521.2,445.7L525,450.3L525.8,454.6L526.8,454.6L526.7,461.9L523.4,468.3L524.7,470.6L523.4,472.1L524.1,475.1L524,479.4L521.8,482.9L521.7,483.7L520,484.9L521,486.7L522.2,487.8L523.8,486.5L529.1,485.6L535.2,485.5L544.8,489.3L552.8,490.3L554.3,488.9L556.1,488.7L560.9,490.9L562.5,490.5L563.6,489L559.4,487.2L557.2,488.2L556.1,488L554.7,486L558,483.8L559.6,483.7L559.6,485.4L561.1,485.3L564.5,485L564.9,487.3L566,487.7L566.6,489.6L571.4,490.6L573.1,492.2L573.1,492.9L571.9,492.9L570.4,494.6L572.1,495.8L577.5,496.8L580.2,499.6L584.6,498.6L580.9,498.8L580.8,498.2L583.6,497.5L583.8,495.7L585,495.4L585,494L586.1,494.1L586.1,495.7L588.6,495.8L589.4,493.9L590.3,494.2L590.5,496.7L591.7,496.9L589.9,498.9L592.5,498L594.5,496.9L597.4,493.6L596.7,493.6L595.4,494.8L595,494.7L594.5,493.9L595.4,492.7L595.4,490.4L596.5,489.6L597.2,490.3L598.2,489.5L599.2,489.4L599.8,490.7L599.2,492.6L601.6,492.6L606.7,494.3L607.2,495.6L608.8,497L611.6,497.1L612.9,497.8L614.7,496.8L615.6,495.1L615.6,493.4L614.2,493.4L613,492L611.9,490.9L608.7,490L606.1,490.2L601.9,487.8L601.9,485.5L603.2,484.5L605.6,485.1L602.5,483.5L602.7,482.7L606.3,482.7L608.9,479.2L606.3,477.4L607.1,475.9L605.9,475.1L605.1,475.1L603.1,477.2L603.1,479.3L602.5,480L601.4,479.9L599.8,478.5L598.5,478.5L598.5,477L599.1,476.3L599.9,477L601.6,475.4L602.3,473.8L603.1,473.5L602.5,472.8ZM592.2,470.1L594.1,471.1L594.9,472.2L597.4,472.3L598.9,473.1L599.1,474.5L598.7,475.1L597.8,473.6L596.4,474.8L595.5,476.2L592.7,477L591.1,477.1L587.4,476.1L587.5,474.4L589.5,472.4L590.6,470L592.2,470.1ZM587.5,471.3L587.5,472.4L585.7,474.4L584.5,474.4L584.5,472.2L586.1,470.7L587.5,471.3Z" style="fill:rgb(230,230,230);fill-rule:nonzero;stroke:rgb(148,148,148);stroke-width:0.5px;"/>
        <path d="M875,128.7L875.6,132.7L878.8,134.7L879.6,136.9L881.9,138.3L883.3,138L884.3,135L883.5,132.1L885.1,131.2L885.6,128.4L885,127.1L888.3,125.2L886.1,122.9L887,120.5L888.4,118.3L888.9,121.5L890.5,119.5L891.8,120.4L893,119.6L893,117.9L896.2,116.6L896.5,113.7L899,113.5L901.7,109.8L901.7,109.1L900.8,108.6L900.7,105.3L901.3,104.2L901.5,105.8L902.5,105.3L902.3,102.1L901.4,102.4L901.3,103.6L900.1,102.2L901,100.8L901.6,100.9L902.7,100.5L903.2,103.3L905.2,103L908.1,103.7L908.1,102.7L907,101.5L908.3,101.6L908.4,99.3L909,100.1L909.3,102L911.4,103.5L911.6,102.5L912.5,102.3L912.2,101.5L913,100.9L912.9,99.3L911.3,99.1L909.3,99.8L911.4,97.4L912.7,97.2L913.1,98.5L914.8,100.1L915.2,98L917.5,96.8L916.6,95.5L916.7,93.8L917.8,94.3L918.5,94.3L920.2,92.9L920.6,90.6L922.8,90.9L922.9,90.2L923.1,88.6L923.6,90L925.1,89L927.4,84.9L927.3,82.7L925.9,80.7L922.9,77.5L921,77.5L920.2,79.7L917.3,76.7L917.6,75.9L917.6,74.4L916,69.9L915.2,69.7L914.5,70.1L909.7,70.1L909.4,66.5L901.3,40.5L894,36.8L891.1,36.7L884.4,43.3L881.7,42.3L880.7,38.4L878,38.4L871.1,57.9L871.8,64.1L870.1,66.5L869.7,71.1L871,74.8L871.8,75L871.8,76.6L870.2,81.1L868.7,82.5L867.4,84.7L867,92.5L864.6,91.5L863.1,91.9L875,128.7ZM909.6,104L908.6,104.8L908.6,106.1L909.3,105.3L910.2,106.1L910.6,105.6L911.7,105.8L910.7,105L911.1,104.2L909.6,104ZM907.9,106.6L906.9,107.7L907.4,108.1L907.3,109.1L908.4,109.1L908.4,107.3L907.9,106.6ZM904.9,105L905.8,106.3L906.8,106.8L907.1,105.8L907.1,104L905.8,103.3L905.4,104.5L904.9,105ZM903.9,110L902.2,108.3L903.8,105.9L904.6,106.2L904.8,107.3L905.8,108.1L905.8,109.2L904.8,110.2L903.9,110Z" style="fill:rgb(230,230,230);fill-rule:nonzero;stroke:rgb(148,148,148);stroke-width:0.5px;"/>
        <path d="M822.9,269.3L822.9,267.6L822.1,267.6L822.1,269.4L822.9,269.3ZM834.7,265.4L835.9,263.2L836,260.7L835.4,260.1L834.7,261L834.5,263.1L833.7,264.5L833.4,265.6L828.8,267.2L828.1,268L826.8,268.2L826.4,269.1L825.1,269.7L824.8,267.2L825.2,266.5L824.4,266L824.6,264.5L823,265.5L823,263.5L824.2,263.2L822.3,262.8L821.6,262L822,260.7L821.2,260.1L820.5,261.7L821,262.5L820.3,263.1L819.2,263.6L817.2,262.6L817,261.4L816,260.3L814.6,258.6L816.1,257.8L815.1,257.2L815.1,256.3L815.7,255.3L817.4,255L816,254.4L815.9,253.7L814.6,253.6L814.2,254.7L813.6,255L813.7,251.6L814.7,250.6L815.5,251.3L815.6,249.7L814.6,248.8L813.7,249.9L812.7,251.3L812.1,250.3L812.3,247.9L813.2,246.9L814.1,247.8L815.3,247.1L814.9,245.4L813.9,246.4L813,244.3L812.8,242.6L813.9,240.2L815,238.8L816.4,238.6L815.9,237.8L816.4,237.2L816.1,236.5L816.3,234.4L814.8,234.8L814,235.9L815,237.2L812.4,240.8L811.5,240.4L810.8,241.3L810.2,243.5L808.4,244L809.7,244.6L811,245.9L810.8,246.6L811.7,247.8L810.6,248.8L811.1,249.1L810.6,250.4L810.6,252.5L810.1,253.8L811,254.9L811.7,258.3L813,259.7L814.6,261.1L815,263.9L816.6,265.9L817,267.3L817,268.3L816.3,268.3L814.8,267.1L814.4,267.3L813.2,267.1L811.5,265.7L810.1,265.4L809.1,265.9L807.9,265.6L807.5,265.8L805.8,265L804.8,264L803.8,262.7L803.2,262.5L802.4,263.2L800.8,264.5L799.7,263.7L799.3,261.4L800.1,259.3L799.8,258.8L800.1,258.4L799.4,257.4L800.4,257.3L801.4,256.4L801.8,254.6L803.5,252L800.9,250.2L799.9,251.9L799.3,251.3L798.3,251.3L797.7,251.2L797.3,250.8L797.4,250.3L795.7,249.7L794.9,250L793.7,249.9L793,249.2L792.5,249L792.3,248.3L792.9,247.5L792.9,246.6L791.7,246.4L790.7,245.5L789.8,245.6L788.2,245.3L787.3,244.9L787.5,243.3L786.5,242.8L786.3,242.1L785.6,242.1L784.8,240.9L785,239.9L782.4,240.3L780.2,238.7L778.8,239L777.9,240.4L776.6,240.4L774.9,243.3L771.6,243.7L769.7,242.7L767.1,246.5L764.9,246.2L761.8,250.1L760.9,251.7L759.1,253.3L757.4,241.9L817.9,230.1L825.5,257.2L836.4,254.9L836.4,260.2L836.3,263.3L835.3,265.1L834.7,265.4ZM821.3,263.6L820,264.5L820.8,266.3L822.5,267.1L822.1,265.5L821.3,263.6Z" style="fill:rgb(169,174,214);fill-rule:nonzero;stroke:rgb(148,148,148);stroke-width:0.5px;"/>
        <path d="M899.9,174.2L903.3,174.2L904.2,173.6L904.3,172.3L902.4,170.5L902.8,171.5L901.3,173L899,173L899.1,173.8L899.9,174.2ZM890.9,176L889.7,175.4L890.7,174.6L891.3,172.5L892.5,171.5L893.3,171.3L893.9,172.2L895,172.4L895.6,171.8L896.1,173.7L894.8,174L892,174.7L890.9,176ZM856,152.6L874.4,148.8L875.4,147.3L875.7,145.6L877.6,145L878.1,143.9L879.8,142.8L881.1,143.1L882.8,146.4L883.8,146.8L884.9,145.5L885.7,146.8L885.7,147.9L882.7,150.3L882.9,151.1L882,152.1L882.4,152.9L881.1,153.2L882,154.4L881.2,155.1L881.8,156.1L882.7,155.9L883,155.1L884.1,155.7L885.9,155.7L888.4,158.3L888.6,160.9L890.4,161L891.2,162.1L891.8,164.1L892.8,164.8L894.7,164.8L896.6,164.7L897.4,163.8L899,162.6L900.1,162.3L898.9,160.2L898.6,161.1L897.1,157.5L896.3,157.5L895.9,158.4L894.7,157.4L896,156.3L897.8,156.7L900.1,158.8L901.4,161.5L902.6,164.8L901.6,167.6L901.6,165.8L900.9,164.8L897.4,167.1L896.5,166.8L894.9,167.8L894.8,169L892.6,170.2L890.6,172.3L888.6,174.2L887.4,174.2L890.7,170.9L891.2,169L890.7,168.4L890.4,167.1L889.5,167L889.4,168.3L888.4,169.5L887.2,169.5L886.9,170.6L887.3,171.8L886.1,172.9L885,172.7L884.6,173.7L883.2,170.7L881.9,169.6L879.3,168.3L878.7,166.1L877.9,166.1L877.2,163.5L870.7,165.5L870.6,165.2L855.7,168.6L855.7,169.3L854.8,169.6L854.3,168.9L843.8,171.3L843.1,170.3L843.6,155.3L856,152.6Z" style="fill:rgb(230,230,230);fill-rule:nonzero;stroke:rgb(148,148,148);stroke-width:0.5px;"/>
        <path d="M663.3,209.8L663.4,211.2L684.8,207.7L685.3,206.5L689.2,200.6L689.2,196.3L690,194.2L692.2,193.4L694.2,185.6L695.2,185.1L696.2,185.7L696,186.3L694.9,187.1L695.2,188L696,188.4L697.9,187L698.3,177.2L696.7,174.9L695.5,171.2L695.5,168.7L693.2,164.3L693.2,162.5L692,159.2L689.7,156.2L686.8,155.2L682,158.2L679.5,162.8L679.3,163.7L676.3,167.2L674.8,167L671.9,164.2L671.8,160.8L673.3,158.9L675.3,158.7L676.5,157L676.7,153L677.5,152.2L678.6,152.1L679.5,150.4L679.3,140.8L679,139.5L677.8,138.3L676.1,137.3L676,135.5L676.7,134.9L678.5,135.7L678.2,134L676.3,131.3L675.6,129.7L674.5,128.6L672.3,128.6L664.2,125.7L662.8,124L659.7,123.7L658.5,124L654.1,121.7L652.7,121.7L653.2,122.7L650.5,122.6L650.6,123.2L651.2,123.8L648.7,125.9L648.8,127.7L650.3,130L651.8,130.2L651.8,130.8L650.3,131.3L648.2,131.2L645.4,133.7L645.5,136.2L645.9,142L643.7,145.4L644.5,140.9L643.7,140.3L642.8,145.6L641.8,143.3L642.3,141L641.8,140L642.4,138.7L641.8,137.6L642.8,136.6L642.8,135.4L641.5,136L640.2,139.1L639.5,139.8L638.2,142.2L636.5,142L636.4,143.2L634.8,143.2L635,144.7L635.2,146.7L632.2,147.9L632.3,149.2L633.3,150.9L633.2,156.1L631.9,160.5L630.2,163L631.4,164.4L632.2,167.9L631.2,170.4L631,172.5L632.7,175.9L635.2,180.8L636.4,182.7L638,189.6L637.9,198.4L637,202.3L635,205.5L634.1,209.2L632.1,212.2L630.9,213.2L663.3,209.8ZM567.5,113L570.5,116.8L587.5,120.6L588.9,121.6L592.9,122.4L593.6,122.9L596.4,122.7L601.3,123.5L602.7,125L601.7,126L602.5,126.8L606.3,127.5L607.5,128.7L607.6,133.1L606.3,135.9L608.3,136L609.3,135.2L610.2,136L609.1,139.1L610.1,140.7L611.3,141L612.1,139.2L615,134.6L616.6,128.6L618.9,126.6L618.4,125L618.9,124.1L619.9,125.7L619.6,127.9L622.5,125.7L622.7,123.4L624.8,124L625.6,122.4L626.3,123L625.6,124.5L624.6,125L623.6,127L625,128.8L626.1,128.3L625.6,127.6L626.6,126.1L628.5,124.4L629.3,124.4L629.5,121.8L631.5,120L639.4,119.5L641.3,116.4L645.1,116.1L648.9,117.3L653.1,120L653.8,119.8L653.6,116.3L654.3,116.1L658.8,117.2L660.3,117L663.2,116.3L664.9,116.7L666.7,116.8L666.7,115.7L666,114.8L664.5,114.6L663.4,113.8L663.9,112.4L663.1,112.1L660.5,112.2L660.4,111.2L661.5,110.4L662.1,111.2L662.6,109.4L661.9,108.7L662.6,108.5L661.2,107.2L661.5,105.9L661.6,104L660.3,104L658.8,105L656.9,105.1L656.4,106.9L654.5,107.1L654.2,105.9L652,106L651,107.2L650.3,107.1L650.1,106.3L647.5,106.7L647.4,101.9L648.4,99.9L647.7,99.8L645.9,100.9L643.7,100.9L639.9,103.6L633.7,103.9L629.6,104.7L627.7,106.2L626.3,107.5L623.8,109.2L623.5,110L622.9,108.3L621.6,107.7L621.6,108.3L622.3,109L622.3,110.3L620.8,109.7L620.2,109.7L619.9,110.9L617.9,109L616.6,108.8L615.3,110.3L612.1,110.2L611.6,108.8L609.6,106.9L608.3,105.3L608.3,104.6L607.2,103.2L604.6,102L601.3,101.9L600.2,101L598.8,101L598.1,101.4L595.9,103.6L595.2,104.7L594.2,104L594.4,103L595.2,100.9L598.4,95.9L599.2,95.7L600.9,93.8L601.6,92.2L604.6,91.6L605.4,91L605.3,90L604.8,89.5L600.3,89.7L598.3,90.2L595.7,91.4L594.5,92.6L592.8,94.8L591,95.8L587.7,99.2L587.3,100.8L579.9,105.4L575.9,105.9L574.1,106.3L571.8,109.3L570,110L565.6,112.3L567.5,113ZM668.2,116.8L672,116.9L672.6,116.4L672.4,114.4L670.7,112.6L668.8,112.7L668.7,113.2L669.8,113.6L668.2,114.4L667.9,115.4L667.3,114.8L666.9,115.6L668.2,116.8ZM593.1,74.9L590.8,75.1L588.1,77L581,82.3L581.8,83.3L583.6,83.6L586.4,81.6L585.3,81.1L587.6,79.5L588.6,79.5L591.6,77.6L591.5,76.7L593.1,74.9ZM634.2,137.7L634.2,138.7L636.3,140.3L636.1,137.9L634.2,137.7ZM633.5,140.5L634.6,140.6L634.6,141.5L633.6,141.5L633.5,140.5ZM654.9,119.2L654.9,120.1L655.7,119.9L655.7,119.4L654.9,119.2ZM659.6,122.3L659.5,121.2L657.9,121L657.3,120.6L656.4,120.6L656,120.9L656.9,121.3L658,122.4L659.6,122.3ZM641.6,123.5L641.5,124.6L641.2,125.3L641.4,127.5L641.8,127.8L642.5,127.9L643,127L643.1,125.4L642.8,124.8L642.7,123.7L641.6,123.5Z" style="fill:rgb(169,174,214);fill-rule:nonzero;stroke:rgb(148,148,148);stroke-width:0.5px;"/>
        <path d="M464.7,68.6L463.6,71.4L464.4,72.8L464.1,77.9L463.6,79L466.3,88.1L467.6,90.6L468.3,104.6L469.3,107.3L468.9,113.1L471.8,120.5L472.1,126.3L472,128.4L471.9,130.6L471,132.6L467.9,134.5L467.6,135.7L469.3,138.2L469.7,140L472.3,140.6L473.8,142.5L473.6,182L501.8,182L538.1,181.1L556.7,180.4L555.6,175.9L555.4,172.9L553.2,169.9L550.4,169.2L545.2,165.6L544.6,162.3L538.3,159.2L538.1,157.9L534.8,157.9L532.6,155.3L530.6,154L531.3,148.9L530.4,147.3L530.9,141.9L531.9,140.1L531.6,137.4L530.4,136.1L528.6,135.8L528.6,134.1L531.4,128.3L537.3,124.4L536.9,111.4L537.8,111.8L538.4,111.3L538.5,110.2L539.4,109.6L540.8,110.8L541.5,110.7L540.3,108.5L544.6,105.4L547.7,101.7L549.3,100.9L554,95L560.3,89.2L564.2,87.1L570.5,84.4L578.1,79.9L577.5,79.5L573.8,80.2L571,80.3L570,78.7L568.6,77.8L558.8,79L557.8,76.2L556.2,76.1L554.5,76.9L550.8,80L546.7,80L544.6,79L544.3,77.3L540.4,76.5L539.8,74.9L539.1,73.6L538.1,74.5L535.5,74.6L525.6,69.1L522.7,69.1L521.9,68.4L518.8,69.7L518,71L514.7,71.8L513.4,71.6L513.4,69.9L512.7,69L506.8,69L506.4,67.6L503.8,67.6L502.7,68L500.3,66.3L500.6,64.9L500,62.5L499.3,61.4L499.1,58.4L498.1,55.3L496,53.7L493.1,53.7L493.2,61.7L462.3,61.3L464.7,68.6Z" style="fill:rgb(43,53,153);fill-rule:nonzero;stroke:rgb(148,148,148);stroke-width:0.5px;"/>
        <g transform="matrix(-0.788959,0,0,-0.788959,839.254,259.782)">
            <rect x="8.442" y="-297.827" width="18.602" height="20.153" style="fill:rgb(0,11,133);stroke:black;stroke-width:0.25px;stroke-linejoin:miter;stroke-miterlimit:4;"/>
        </g>
        <g transform="matrix(-0.788959,0,0,-0.788959,839.254,259.782)">
            <rect x="8.464" y="-317.98" width="18.602" height="20.153" style="fill:rgb(43,53,153);stroke:black;stroke-width:0.25px;stroke-linejoin:miter;stroke-miterlimit:4;"/>
        </g>
        <g transform="matrix(-0.788959,0,0,-0.788959,839.254,259.782)">
            <rect x="8.442" y="-338.132" width="18.602" height="20.153" style="fill:rgb(85,92,174);stroke:black;stroke-width:0.25px;stroke-linejoin:miter;stroke-miterlimit:4;"/>
        </g>
        <g transform="matrix(-0.788959,0,0,-0.788959,839.254,259.782)">
            <rect x="8.442" y="-358.285" width="18.602" height="20.153" style="fill:rgb(128,133,194);stroke:black;stroke-width:0.25px;stroke-linejoin:miter;stroke-miterlimit:4;"/>
        </g>
        <g transform="matrix(-0.788959,0,0,-0.788959,839.254,259.782)">
            <rect x="8.442" y="-378.438" width="18.602" height="20.153" style="fill:rgb(169,174,214);stroke:black;stroke-width:0.25px;stroke-linejoin:miter;stroke-miterlimit:4;"/>
        </g>
        <g transform="matrix(-0.788959,0,0,-0.788959,839.237,227.983)">
            <rect x="8.442" y="-438.896" width="18.602" height="20.153" style="fill:rgb(230,230,230);stroke:black;stroke-width:0.25px;stroke-linejoin:miter;stroke-miterlimit:4;"/>
        </g>
        <g transform="matrix(0.788959,0,0,0.788959,835.929,571.141)">
            <text x="0px" y="0px" style="font-family:'Verdana', sans-serif;font-size:22.323px;">&lt;1</text>
        </g>
        <g transform="matrix(0.788959,0,0,0.788959,836.454,557.927)">
            <text x="0px" y="0px" style="font-family:'Verdana', sans-serif;font-size:22.323px;">1-2</text>
        </g>
        <g transform="matrix(0.788959,0,0,0.788959,836.016,541.709)">
            <text x="0px" y="0px" style="font-family:'Verdana', sans-serif;font-size:22.323px;">3-4</text>
        </g>
        <g transform="matrix(0.788959,0,0,0.788959,835.947,525.491)">
            <text x="0px" y="0px" style="font-family:'Verdana', sans-serif;font-size:22.323px;">5-9</text>
        </g>
        <g transform="matrix(0.788959,0,0,0.788959,835.947,509.273)">
            <text x="0px" y="0px" style="font-family:'Verdana', sans-serif;font-size:22.323px;">10-20</text>
        </g>
        <g transform="matrix(0.788959,0,0,0.788959,836.196,493.055)">
            <text x="0px" y="0px" style="font-family:'Verdana', sans-serif;font-size:22.323px;">&gt;20</text>
        </g>
        <g transform="matrix(0.788959,0,0,0.788959,817.433,457.619)">
            <text x="0px" y="0px" style="font-family:'Verdana', sans-serif;font-size:22.323px;">% of population</text>
        </g>
        <g transform="matrix(0.788959,0,0,0.788959,816.18,474.733)">
            <text x="0px" y="0px" style="font-family:'Verdana', sans-serif;font-size:22.323px;">EL<tspan x="26.323px 41.91px " y="0px 0px ">CA</tspan> in 2010</text>
        </g>
        <path d="M623.8,468.6L618.8,468.7L616.4,467.2L608.5,469.7L607.6,469L607.1,469.2L607,470.8L606.4,470.9L603.8,473.6L603.1,473.5L602.5,472.8L601.3,471L601.6,469.7L596.8,462.9L597.7,458.3L598.7,456.9L598.8,455.5L562.8,457.5L564.5,445.6L566.9,440.8L572.9,432.4L571.1,429.9L573.1,429.9L573.1,426.6L570.7,424.1L571.2,422.4L570,421.4L568.4,414.3L569,412.9L570.2,411.4L570.7,408.4L569.2,406.1L568.7,403.9L569.6,403.2L569.6,402.4L567.9,401.3L567.8,400.6L569.4,399.7L568.2,398.6L569.9,391.5L573.3,389.9L573.3,389.1L572.2,387.7L575.1,382.3L577,382.3L578.5,381.1L578.2,375.9L581.3,371.4L583.1,370.8L582.6,367.7L620.9,365.1L622.2,367.1L620.9,434.1L625.3,467.3L623.8,468.6Z" style="fill:rgb(230,230,230);fill-rule:nonzero;stroke:rgb(148,148,148);stroke-width:0.5px;"/>
        <path d="M555.3,248.9L554.2,247.8L553.6,246.2L551.9,244.9L537.6,245.7L510.4,246.9L484.5,246.8L485.8,248.1L485.5,249.5L487.6,253.2L491.5,259.5L494.4,262.5L496.4,263.1L497.3,262.1L498.8,264.2L498.7,265.4L496,268L495.5,270.3L498,272.8L500.6,277.5L503.8,278.2L504.3,326.3L504.5,337.1L543.6,336.4L583.4,334.4L585,336.9L585,339.1L583.3,340.6L580.5,345.7L591.7,344.9L592.7,342.9L593.9,342.4L593.9,341.7L592.7,340.6L592.1,339.6L593.8,339.8L594.6,339.1L593.2,337.6L594.6,337.1L594.7,336.1L594.1,335.1L594.1,333.8L593.4,333.1L593.6,332.1L594.7,332.1L595.4,332.8L595.1,333.8L595.9,334.5L596.7,333.5L597.7,330.8L599.1,331.7L599.8,331.3L601,327.2L600,326.2L601,324.2L601.2,323.3L599.9,322.5L597.1,322.5L595.7,321L593.9,317.2L593.9,315.3L594.7,314.7L594.8,313.4L593.1,311.5L592.2,309L589.5,304.9L584.7,303.6L577.3,296.5L576.9,294.1L579.7,286.5L579.3,284.6L580.5,283.5L580.5,282.2L577.7,280.7L574.7,280L571.3,281.2L570,278.9L570.6,277L569.9,274.6L561.3,266.2L559.1,264.7L556.6,258.8L555.4,253.4L556.8,249.7L555.3,248.9Z" style="fill:rgb(230,230,230);fill-rule:nonzero;stroke:rgb(148,148,148);stroke-width:0.5px;"/>
        <path d="M247,130.5L304.3,138.4L355.3,143.7L357.3,123L362.5,56.3L309,50.7L254.7,43L188.8,30.5L184,52.5L187.7,59.9L186.1,64.7L189.7,69.5L191.6,70.2L195.5,78.5L195.5,80.6L197.8,83.6L198.7,83.6L200.1,85.7L203.3,85.7L203.3,87.3L196.2,104.3L195.7,108.4L197.1,108.9L198.7,111.5L201.5,110.1L205.1,107.7L207,109.6L207.5,112.1L207,115.3L209.5,125L212.1,128.5L214.4,129.9L214.8,132.9L214.8,137L217.1,139.3L218.7,137L225.6,138.6L227.7,137.4L236.7,139.1L239.5,135.8L241.3,135.2L242.5,137L244.1,141.1L245,141.2L247,130.5Z" style="fill:rgb(128,133,194);fill-rule:nonzero;stroke:rgb(148,148,148);stroke-width:0.5px;"/>
        <path d="M402.5,191.1L440.5,192.7L443.9,195.9L445.6,196.1L447.7,198.1L449.5,198L451.3,196L452.8,196.6L453.8,195.9L454.5,196.4L455.4,196L456.1,196.4L457,196L458,196.5L459.4,195.9L461.4,196.5L462,197.6L468.1,199.8L469.3,201.1L470.2,203.7L472,204.4L473.5,204.2L474,205.1L474,207.4L474.6,209.1L474.6,210.5L475.9,214.2L478.1,218.5L478.3,222.2L481.1,227.2L481.5,233.3L482.8,234L482.6,236.9L483.4,240.2L482.7,242.4L484.5,246.8L485.8,248.1L485.5,249.5L487.6,253.2L491.5,259.5L459.1,259.5L415.4,258.3L379.4,256.3L380.8,234.2L347.7,231.8L351.4,187.6L402.5,191.1Z" style="fill:rgb(85,92,174);fill-rule:nonzero;stroke:rgb(148,148,148);stroke-width:0.5px;"/>
        <path d="M167.6,296.8L164.2,314.3L161.8,317.2L159.8,317.2L158.6,314.5L154.9,313.1L151.4,313.7L150.4,327.3L150.9,332.2L150.4,335.1L149,338.1L78.6,233.1L77.5,229.6L93.9,166.5L140.9,177.7L165.3,183.1L188.6,187.8L167.6,296.8Z" style="fill:rgb(230,230,230);fill-rule:nonzero;stroke:rgb(148,148,148);stroke-width:0.5px;"/>
        <path d="M862.6,93.6L861.3,93.7L860.3,92.6L858.4,94L857.9,100.1L859.1,102.4L858,105.9L860.1,108.7L859.7,110.4L859.8,111.7L858.7,113.8L857.3,114.2L856.7,115.5L854.6,116.5L853.9,118L855.3,121.4L854.8,123.9L855.3,125.4L854.3,127.3L854.7,129.2L853.4,131.1L853.6,133.3L852.9,134.4L853.6,138.9L854.3,140.4L853.8,143L854.7,144.8L854.5,147.3L854,148.6L853.9,150L856,152.6L874.4,148.8L875.4,147.3L875.7,145.6L877.6,145L878.1,143.9L879.8,142.8L881.1,143.1L881.9,138.3L879.6,136.9L878.8,134.7L875.6,132.7L875,128.7L863.1,91.9L862.6,93.6Z" style="fill:rgb(230,230,230);fill-rule:nonzero;stroke:rgb(148,148,148);stroke-width:0.5px;"/>
        <path d="M842.5,195.4L827.9,190.5L826.1,193L826.2,195.2L823.2,200.6L824.7,202.4L824,204.4L823,205.4L823.5,209L826.2,209.9L827.2,212.7L829.3,213.8L833.5,217L830.2,219.6L828.6,221.9L826.8,224.9L825.2,225.5L823.8,227.2L822.8,229.4L822.5,231.5L823.3,232.4L823.7,234.7L824.9,235.3L827.3,236.8L829.1,237.6L830.7,238.4L830.8,239.5L831.6,239.6L832.7,238.4L833.5,238.8L835.6,239L835.4,241.9L835.6,244.4L837.4,243.7L838.9,239.8L840.5,235L843.4,232.2L844,228.7L843.4,227.5L845.1,224.6L845.1,223.4L844.4,222.3L845.6,219.6L845.3,216L844.7,207.8L843.5,206.4L843.5,207.8L844,208.4L842.9,208.4L842.3,208L841,207.8L840.1,208.4L838.9,206.8L839.6,205.1L839.6,204.1L841.3,203.4L842.1,201.3L842.5,195.4Z" style="fill:rgb(230,230,230);fill-rule:nonzero;stroke:rgb(148,148,148);stroke-width:0.5px;"/>
        <path d="M357.5,332.9L356.7,332.9L348.8,432.2L317,429.6L282.6,426L282.3,429L284.3,431.2L253.5,427.1L252.1,437.3L236.4,435.1L253.8,311L306.4,317.5L358.1,322.3L357.5,332.9Z" style="fill:rgb(230,230,230);fill-rule:nonzero;stroke:rgb(148,148,148);stroke-width:0.5px;"/>
        <path d="M872.9,181.6L871.6,181.7L871.1,182.7L872.9,181.6ZM842.3,204.3L843,204.9L844.3,204.6L845.4,204.9L846.3,203.6L848.2,203.6L850.6,202.7L855.7,200.6L855.2,200.1L853.3,200.9L851.3,201.8L851.5,201L854.1,199.9L854.9,198.9L856.1,199L860.2,196.7L860.2,197.4L856,200.4L860.5,197.6L862.2,195.4L863.7,195.3L868.2,192.2L871.4,189.1L874.4,186.8L875.4,185.6L873.7,185.5L872.7,186.7L872.5,187.4L871.6,188.1L870.8,187L869.1,188L869,188.9L868.1,188.7L868.6,187.8L867.4,187.1L866.8,188L867.7,188.3L867.9,188.8L867.6,189.3L866.2,191.9L864.3,191.9L865.2,190.1L866.1,189.5L866.4,187.8L867.8,186.2L868.7,185.4L870.2,184.7L869,184.5L868.3,185.4L867.6,185.4L866.5,186.2L866.3,187.2L864.1,189.3L863.7,190.2L862.3,191.1L854.6,193L854.8,193.9L853.9,194.6L851.9,194.9L850.9,194.3L850.7,195.4L849.6,195L849.7,196L848.5,195.9L847.3,196.4L847.1,197.5L846.1,197.5L846.3,198.5L845.6,198.5L845.8,199.5L844,199.9L842.5,202.2L842.3,204.3ZM841.5,203.9L839.9,204.3L839.9,205.3L839.2,206.9L839.8,207.6L842.2,205.3L842.1,204.4L841.5,203.9ZM831.4,108.7L830.8,110.6L832.2,111.5L831.8,113L832.3,116.2L834.5,118.5L834.1,120.7L834.7,122.7L834.3,123.7L834,127.5L837.1,134.2L836.3,136L837.2,138.2L838.1,136.6L840,138.1L843,152.3L842.5,154.3L843.6,155.3L843.1,170.3L843.8,171.3L846.6,187.6L848.4,189.1L844.9,192.5L846.6,194.7L845.3,198L843.8,199.7L842.3,202L842.1,201.3L842.5,195.4L827.9,190.5L826.3,189.4L824.4,189.7L821.4,187.5L818.4,181.7L816.4,181.7L816,180.2L814.3,179.1L743.8,193L743,187L747.3,183.1L747.9,181.4L751.8,178.9L752.4,176.5L754.7,174.5L755.5,173.4L753.8,170.1L752.1,169.6L750.3,166.6L750.1,163.4L757.7,159.5L765.9,157.9L770.3,157.9L773.5,159.5L774.4,159.4L776.2,157.8L779.6,157.1L782.6,157.1L785.2,155.8L787.7,153.2L790.1,150.1L792,149.7L793.1,149.2L793.5,146L792.1,143.3L790.9,142.6L792.9,141.3L792.8,139.5L791.3,139.5L789,138.1L788.9,135L795.1,128.9L795.8,126.5L799.5,120.2L805.4,113.8L807.5,112.1L810,112.2L830.6,107L831.4,108.7Z" style="fill:rgb(230,230,230);fill-rule:nonzero;stroke:rgb(148,148,148);stroke-width:0.5px;"/>
        <path d="M829,300.1L799.9,306.2L760.5,313.5L731.1,317L731.1,322.2L729.6,322.1L728.2,323.3L725.8,328.5L723.2,327.4L719.7,329.9L719,332L717.5,333.2L716.7,332.4L716.6,330.9L715.8,330.7L711.8,334L711.2,337.4L706.5,339.8L706,341L702.8,343.6L699.2,344.1L694.6,347.1L693.8,351.2L692.5,352.1L691,352L689.6,353.3L689.5,358.2L710.9,355.2L715.3,353.3L716.6,353.2L723.9,348.9L747.1,346.7L747.5,347.2L747.3,348.6L748,348.9L749.2,347.4L752.5,350.4L752.6,353L772.3,350.2L796.8,367.3L800.8,365.1L803.8,364.4L805.5,364.4L806.6,365.5L807.4,363.5L808,358.5L809.7,354.6L815.1,348.5L819.2,345L824.6,342.7L827.1,342.3L828.4,342.7L829.1,343.8L832.4,337.2L835.7,331.9L835,331.6L830.6,338.4L830.1,337.6L832.1,335.4L831.7,333.9L829.7,333.4L830.7,334.7L829.5,334.8L828.3,333L827.1,335L825.5,335.2L826.5,332.5L827.2,330.8L827,327.9L824.8,327.8L825.7,326.9L826.8,327.2L829.5,327.3L830.3,326.8L832.6,326.8L834.6,324.9L834.8,321.7L836.1,320.3L837.3,320.1L838.6,319.1L838.1,315.4L835.9,311.6L833.2,311.4L832.3,313L831.8,312L829.1,312.2L827.9,312.6L826,313.8L825.7,313.4L824.8,313.4L823,314.6L820.4,315.1L820.4,313.8L821.2,312.8L822.2,313.5L823.2,313.5L824.9,311.4L828.6,309.7L830.6,307.5L833,307.5L833.8,308.8L835.5,309.6L835,308.1L834.7,306.5L831.9,303.4L831.6,302L831.2,303L830.3,301.7L829,300.1ZM836,331.1L838.7,328.6L843.3,325.3L843.3,321.6L842.9,318.5L841.2,314.3L842.7,315.7L843.7,318.9L844.1,326.5L842.4,326.9L839.3,329.3L836.1,332.5L836,331.1ZM837.9,311.8L837,311.6L837,312.6L839.5,314.8L839.3,313.4L837.9,311.8ZM840.8,313.9L839.4,311.1L837.2,307.7L834.8,304.7L832.6,300.4L831.8,299.7L834,304L834.3,305.3L837.7,310.8L839.5,312.9L840.8,313.9Z" style="fill:rgb(230,230,230);fill-rule:nonzero;stroke:rgb(148,148,148);stroke-width:0.5px;"/>
        <path d="M464.7,68.6L463.6,71.4L464.4,72.8L464.1,77.9L463.6,79L466.3,88.1L467.6,90.6L468.3,104.6L469.3,107.3L468.9,113.1L471.8,120.5L472.1,126.3L472,128.4L442.5,128L396.5,125.9L357.3,123L362.5,56.3L407,59.7L462.3,61.3L464.7,68.6Z" style="fill:rgb(0,11,133);fill-rule:nonzero;stroke:rgb(148,148,148);stroke-width:0.5px;"/>
        <path d="M685.7,208.8L687.6,208.4L690.6,209.7L692.7,210.3L693.4,211.2L694.4,211.2L695.4,209.7L696.7,210.5L698.2,210.5L698.1,211.5L695,212L693,213.1L694.9,213.9L696.5,212.4L698.9,212L701.1,213.5L702.6,213.4L705.1,211.7L708.7,209.6L713.9,209.3L718.8,203.4L722.6,200.3L731.9,195.2L736.8,225.1L734.6,226.3L736,228.4L735.9,230.6L736.5,232.6L735.4,236L735.3,241.4L734.3,245L734.8,246.1L734.4,248.3L733.3,248.8L731.3,252.1L729.5,254.1L728.9,254.1L727.1,255.8L725.8,254.6L724.3,256.4L724,257.6L722.7,257.6L721.4,259.8L721.5,261.9L720.5,262.4L721.9,263.5L721.9,265.4L720.9,265.6L720.2,266.4L719.2,266.9L718.6,264.8L717,264.3L716,266.6L715.7,268.8L714.6,270.1L715.9,273.7L714.4,274.5L714,278L712.5,278L709.3,279.4L708.1,277.3L704.6,275.9L703.8,273L703.3,272.2L699.9,274L699.3,275.7L698.4,275.7L697.1,276.4L695.9,275.6L692.9,274.8L691,275.6L691,276.6L688.8,276.4L686.9,274.3L684.6,274.5L680.5,273.8L680.5,272.8L678.3,269.4L675.4,268.2L673.5,269L671.3,268.9L670,268.4L663.4,211.2L684.8,207.7L685.7,208.8Z" style="fill:rgb(169,174,214);fill-rule:nonzero;stroke:rgb(148,148,148);stroke-width:0.5px;"/>
        <path d="M501.5,398.6L496.9,394.8L494.7,393.9L494.2,395.5L489.1,395.8L488.5,394.3L483.5,396.8L481.9,396.1L478.2,396.4L477.6,398.1L474,399L472.7,397.8L471.5,397.9L469.5,396.1L467.4,396.8L465.4,396.3L463.6,394.3L461.1,398.5L459.9,399.3L458.9,397.5L459.2,395.5L458,394.8L455.7,397.3L454,396.1L453.9,394.6L452.6,395.1L450,393.4L447,396L444.7,394.9L445.4,392.8L443.1,392.9L441.2,389.9L437.7,388.8L435.7,391.1L433.4,388.9L432,389.3L430,389.4L426.5,387.5L424.2,387.6L423,386.9L422.5,384L420.2,382.3L419.1,383.8L417.7,382.8L416.5,382.4L415.4,383.4L413.9,383.1L411.4,380.1L408.7,378.8L410.1,336.1L357.5,332.9L358.1,322.3L374.6,323.3L442.3,326.2L504.3,326.3L504.5,337.1L508.6,361.5L507.9,400.5L501.5,398.6Z" style="fill:rgb(230,230,230);fill-rule:nonzero;stroke:rgb(148,148,148);stroke-width:0.5px;"/>
        <path d="M93.9,166.5L140.9,177.7L149.4,140.4L152.3,134.6L152.7,132.5L153.5,131.6L152.6,129.6L149.7,128.4L149.9,124.2L153.9,118.4L156.4,117.6L158,115.3L157.9,113.7L159.7,112.1L162.9,106.6L167.1,101.8L166.6,98.6L163.1,95.5L161.5,91.9L131.2,84.6L128.4,85.6L123,84.7L121.2,83.8L119.7,85L116.4,84.6L111.9,85.1L111,85.8L106.8,85.4L106,83.8L104.8,83.6L100.4,84.9L98.8,83.8L96.6,84.6L96.4,82.8L94.1,81.6L92.6,81.4L91.6,80.3L88.6,80.6L87.4,79.8L86.2,79.8L85,80.7L79.5,81.4L72.9,77.2L74,71.6L73.6,67.5L70.4,63.8L66.7,63.9L66.3,62.8L66.7,61.6L66,60.8L65,60.9L63.9,62.2L62.4,62L61.9,60.9L60.9,60.8L60.2,61.4L58.2,59.5L58.2,63.8L56.9,65.1L55.8,68.6L55.7,70.9L51.2,83.2L38,114.5L34.8,119.1L33.2,119L33.3,121.1L28.1,128.2L27.8,131.5L28.8,132.8L28.9,135.2L27.7,136.3L26.5,139.3L26.6,145L27.8,147.9L93.9,166.5Z" style="fill:rgb(230,230,230);fill-rule:nonzero;stroke:rgb(148,148,148);stroke-width:0.5px;"/>
        <path d="M826.3,189.4L824.4,189.7L821.4,187.5L818.4,181.7L816.4,181.7L816,180.2L814.3,179.1L743.8,193L743,187L738.8,190.4L737.9,190.5L735.2,193.5L731.9,195.2L736.8,225.1L740,244.8L757.4,241.9L817.9,230.1L819.1,228L820.6,226.9L822.2,226.6L823.8,227.2L825.2,225.5L826.8,224.9L828.6,221.9L830.2,219.6L833.5,217L829.3,213.8L827.2,212.7L826.2,209.9L823.5,209L823,205.4L824,204.4L824.7,202.4L823.2,200.6L826.2,195.2L826.1,193L827.9,190.5L826.3,189.4Z" style="fill:rgb(128,133,194);fill-rule:nonzero;stroke:rgb(148,148,148);stroke-width:0.5px;"/>
        <path d="M883.2,170.7L881.9,169.6L879.3,168.3L878.7,166.1L877.9,166.1L877.2,163.5L870.7,165.5L873.9,177.8L873.5,178.9L873.9,180.7L879.5,177.1L879.6,174.1L878.8,173.3L879.2,172.7L879.1,171.4L878.2,170.7L879.4,170.3L878.5,168.7L880.3,169.4L880.6,170.8L881.3,172L879.9,171.2L881,172.9L880.7,174.1L880.1,173L880.1,175.5L880.7,174.6L881.1,175.5L882.4,174L882.2,171.5L883.6,174.6L884.6,173.7L883.2,170.7ZM878.5,182.9L879.4,182.9L879.9,182.3L879.1,181L878.4,181.7L878.5,182.9Z" style="fill:rgb(230,230,230);fill-rule:nonzero;stroke:rgb(148,148,148);stroke-width:0.5px;"/>
        <path d="M772.3,350.2L752.6,353L752.5,350.4L749.2,347.4L748,348.9L747.3,348.6L747.5,347.2L747.1,346.7L723.9,348.9L716.6,353.2L715.3,353.3L710.9,355.2L710.8,357.1L708.9,358.1L707.5,361.3L707.7,362.6L713.8,366.4L716.4,366.1L719.5,370.1L719.9,371.8L724.1,376.9L726.7,378.6L728.1,378.8L730.3,380.4L731.4,382.6L733.4,384.2L735.2,384.7L737.9,387.4L738,388.8L740.6,391.6L745.6,393.9L749.2,400.6L749.5,403.3L753.4,405.4L755.9,410.2L756.7,413.3L760.9,413.7L761.7,412.2L762.3,412.2L764.1,410.7L764.6,408.7L767.8,406.6L768.1,404.2L766.9,403.3L767.7,402.6L768.5,403L769.8,402.6L771.6,400.5L775.4,398.7L777,396.3L777.1,395.6L781.9,391.2L781.8,390.7L780.9,389.9L782,388.4L782.8,388.4L783.2,388.9L783.9,388.1L785.2,388.1L785.8,386.6L788.1,384.5L787.8,379.1L788.6,376.8L792.2,370.6L794.6,368.4L796.8,367.3L772.3,350.2Z" style="fill:rgb(169,174,214);fill-rule:nonzero;stroke:rgb(148,148,148);stroke-width:0.5px;"/>
        <path d="M396.5,125.9L442.5,128L472,128.4L471.9,130.6L471,132.6L467.9,134.5L467.6,135.7L469.3,138.2L469.7,140L472.3,140.6L473.8,142.5L473.6,182L471.4,181.9L471.3,183.5L472.6,185L472.5,186.1L471.5,186.6L471.9,188.2L473.2,188.6L473.9,190.6L472.2,195.7L471.2,200L472.5,201.2L472.8,202.5L473.5,204.2L472,204.4L470.2,203.7L469.3,201.1L468.1,199.8L462,197.6L461.4,196.5L459.4,195.9L458,196.5L457,196L456.1,196.4L455.4,196L454.5,196.4L453.8,195.9L452.8,196.6L451.3,196L449.5,198L447.7,198.1L445.6,196.1L443.9,195.9L440.5,192.7L402.5,191.1L351.4,187.6L355.3,143.7L357.3,123L396.5,125.9Z" style="fill:rgb(43,53,153);fill-rule:nonzero;stroke:rgb(148,148,148);stroke-width:0.5px;"/>
        <path d="M620.9,365.1L666.6,361.1L689.5,358.2L689.6,353.3L691,352L692.5,352.1L693.8,351.2L694.6,347.1L699.2,344.1L702.8,343.6L706,341L706.5,339.8L711.2,337.4L711.8,334L715.8,330.7L716.6,330.9L716.7,332.4L717.5,333.2L719,332L719.7,329.9L723.2,327.4L725.8,328.5L728.2,323.3L729.6,322.1L731.1,322.2L731.1,317L731.4,316.3L726.8,316.8L726.6,317.8L697.7,321.1L692.1,322.5L671.6,323.9L666.4,324.7L649,325.7L646.4,326.5L623.8,328.5L623.1,327.9L619.4,327.9L620.6,331.1L620,332L596.7,333.5L595.9,334.5L595.1,333.8L594.1,333.8L594.1,335.1L594.7,336.1L594.6,337.1L593.2,337.6L594.6,339.1L593.8,339.8L592.1,339.6L592.7,340.6L593.9,341.7L593.9,342.4L592.7,342.9L591.7,344.9L591.8,345.5L593.2,346.5L592.8,347.2L591.3,347.2L591.3,347.7L592.2,348.6L592.3,349.4L590.9,349.6L590.4,350.4L588.8,350.6L587.9,351.5L588.5,352.4L589.6,352.3L590.1,353.2L588.5,354.5L588.9,356L586.9,355.4L586.8,356.1L587.2,357.2L586.9,358.6L585.6,357.8L584.8,358.6L585.9,358.7L586,360.2L585.4,361.2L586.5,362.1L586.2,363.6L587,364.3L586.3,365.3L585.1,364.8L584.2,367L582.6,367.7L620.9,365.1Z" style="fill:rgb(230,230,230);fill-rule:nonzero;stroke:rgb(148,148,148);stroke-width:0.5px;"/>
        <path d="M282.3,429L282.6,426L317,429.6L348.8,432.2L356.7,332.9L357.5,332.9L410.1,336.1L408.7,378.8L411.4,380.1L413.9,383.1L415.4,383.4L416.5,382.4L417.7,382.8L419.1,383.8L420.2,382.3L422.5,384L423,386.9L424.2,387.6L426.5,387.5L430,389.4L432,389.3L433.4,388.9L435.7,391.1L437.7,388.8L441.2,389.9L443.1,392.9L445.4,392.8L444.7,394.9L447,396L450,393.4L452.6,395.1L453.9,394.6L454,396.1L455.7,397.3L458,394.8L459.2,395.5L458.9,397.5L459.9,399.3L461.1,398.5L463.6,394.3L465.4,396.3L467.4,396.8L469.5,396.1L471.5,397.9L472.7,397.8L474,399L477.6,398.1L478.2,396.4L481.9,396.1L483.5,396.8L488.5,394.3L489.1,395.8L494.2,395.5L494.7,393.9L496.9,394.8L501.5,398.6L507.9,400.5L510.5,402.8L513.3,401.5L516.5,402.3L516.7,414.2L517.2,434.1L517.9,437.5L520.5,440.3L521.2,445.7L525,450.3L525.8,454.6L526.8,454.6L526.7,461.9L523.4,468.3L524.7,470.6L523.4,472.1L524.1,475.1L524,479.4L521.8,482.9L521.7,483.7L520,484.9L521,486.7L522.2,487.8L518.7,488.1L510.3,492L506.8,493.4L505,495.2L504.3,494.7L506.4,492.4L508.2,491.7L508.7,490.8L505.8,490.7L505.1,489.9L505.9,487.9L505,486.1L504.4,486.1L502,487.4L500.1,490L500.4,491.7L503.7,495.1L505,495.4L505,496.2L502.7,497.8L497.8,501.8L493.8,505.7L490.6,507.1L485.6,510.1L481.9,512.1L477.4,514L473.3,516.5L476.5,513.5L476.5,512.4L477.1,511.6L476.9,509.8L475.4,509.7L474.3,511.2L471.7,512.5L469.9,511.3L469.6,509.6L468.1,509.6L468.9,511.8L470.3,512.5L471.5,513.4L473.3,515L472.6,515.8L468.7,517.5L467,517.6L465.8,516.4L465.3,518.5L465.8,519.6L463.1,521.6L461.6,521.8L460.8,522.5L460.4,524.2L458.6,527.5L457,528.2L455.4,527.6L453.6,528.7L453.9,530.1L455.2,530.9L456.2,531.7L454.4,535.2L454.1,538L453.1,539.7L451.7,540.7L448.8,541.1L450.6,541.7L452.5,541.1L452.1,544.3L451,544.2L451.2,545.4L451.5,546.8L450.2,547.7L450.2,550.8L451.8,552.2L452.4,555.3L452,557.5L451,557.9L451.4,559.4L452.5,559.8L453.3,561.5L453.3,564.1L454.4,566.2L456.6,568.8L456.5,569.5L454.3,569.3L452.7,570.7L452.9,572.1L452,571.8L450.6,571.6L447.2,567.9L444.9,567.3L437.8,567.3L435,566.5L431.4,563.5L429.7,562.5L427.6,562.6L424.4,560L419,558.4L419,557.1L417.6,555.3L416.7,550.6L415.6,548.9L413.9,547.5L413.9,545.9L412.5,545.3L413.1,542.7L412.8,540.5L411.5,539.1L412.2,536.1L411.4,532.9L409.7,531.5L408.6,531.5L404.6,528L404.7,526.1L403.9,524.4L403.1,524.2L402.2,521.8L400.2,520.2L397.3,517.7L397.1,515.6L396.1,514.9L396.3,513.3L396.8,512.6L395.4,511.1L395.5,510.4L393.5,508.2L393.6,506.1L390.9,501.2L390.8,499.5L389,496.4L383.9,491.6L383.9,490.5L380.6,488.8L380.5,487L379.3,486.6L379.3,485.9L378.5,485.7L376.4,482.9L375.6,482.9L374.9,482.3L373.6,483.4L371.4,483.4L368.8,482.3L364.2,482.3L360,480.2L358.7,482.1L356.5,481.5L353.2,482.7L351.5,485.5L349.5,488.7L348.4,493.1L347,494.3L345.9,494.4L345,496L343.7,496.6L343.6,498.4L340.7,498.5L338.9,497L337.9,497L335.9,494.1L332.3,493.6L330.6,491.3L329.3,491.1L327.2,490.3L323.8,486.9L324,486.1L322.4,484.9L321.4,484.8L318,481.7L317.9,479.7L315.6,475.7L315.8,474.1L315.1,472.8L315.9,471.3L315.8,468.9L313.2,464.8L312.6,460.6L311,459L311,458L309.8,457.8L309.1,456.7L306.7,455L305.8,454.9L303.9,453.3L303.9,452.2L301,450.4L300.4,448.3L297.8,446L294.6,441.6L291.6,440.3L289.5,438.5L289.7,437.3L288.4,435.9L286.7,432.2L284.3,431.2L282.3,429ZM457.2,567.3L458,567.4L457.4,562.6L453.9,550.3L453.7,542.2L458.6,531.7L464.7,523.5L471.9,518.4L471.9,517.7L471.1,517.7L468.5,518.7L464.9,521L464.2,522.5L456,534.1L453.2,542L453.2,550.8L456.8,562.8L457.2,567.3Z" style="fill:rgb(230,230,230);fill-rule:nonzero;stroke:rgb(148,148,148);stroke-width:0.5px;"/>
        <path d="M233.2,217.9L236.5,196L188.6,187.8L167.6,296.8L213.8,305L253.8,311L265.3,222.7L233.2,217.9Z" style="fill:rgb(230,230,230);fill-rule:nonzero;stroke:rgb(148,148,148);stroke-width:0.5px;"/>
        <path d="M859.1,102.4L858,105.9L860.1,108.7L859.7,110.4L859.8,111.7L858.7,113.8L857.3,114.2L856.7,115.5L854.6,116.5L853.9,118L855.3,121.4L854.8,123.9L855.3,125.4L854.3,127.3L854.7,129.2L853.4,131.1L853.6,133.3L852.9,134.4L853.6,138.9L854.3,140.4L853.8,143L854.7,144.8L854.5,147.3L854,148.6L853.9,150L856,152.6L843.6,155.3L842.5,154.3L843,152.3L840,138.1L838.1,136.6L837.2,138.2L836.3,136L837.1,134.2L834,127.5L834.3,123.7L834.7,122.7L834.1,120.7L834.5,118.5L832.3,116.2L831.8,113L832.2,111.5L830.8,110.6L831.4,108.7L830.6,107L857.9,100.1L859.1,102.4Z" style="fill:rgb(230,230,230);fill-rule:nonzero;stroke:rgb(148,148,148);stroke-width:0.5px;"/>
        <path d="M834.7,265.4L833.6,268.2L834.1,269.3L834.5,268.2L835.3,265.1L834.7,265.4ZM800.1,258.4L799.4,257.4L800.4,257.3L801.4,256.4L801.8,254.6L801.6,254.1L801.7,253.6L801.4,252.9L800.8,252.4L800.4,252.3L799.9,251.9L799.3,251.3L798.3,251.3L797.7,251.2L797.3,250.8L797.4,250.3L795.7,249.7L794.9,250L793.7,249.9L793,249.2L792.5,249L792.3,248.3L792.9,247.5L792.9,246.6L791.7,246.4L790.7,245.5L789.8,245.6L788.2,245.3L787.8,246L787.4,247.6L786.9,249.9L776.9,244.7L776.7,245.6L777.6,247.2L776.8,249.5L776.9,252.4L775.7,253.2L775.2,255.3L774.3,256.1L772.9,257.9L772,258.7L771,261.2L768.6,260.1L766.3,268.6L765,270.2L762.2,269.7L760.9,267.8L758.6,267.1L758.5,271.8L757.1,273.5L757.5,275L755.4,277.2L755.8,279.1L752.1,285.4L751.1,288.7L752.6,289.9L751.1,291.8L751.2,293.2L748.9,295.2L748.2,294.1L743.9,297.2L742.4,296.2L741.8,297.6L742.6,298.1L742.1,299L736.6,301.4L733.6,299.6L732.8,301.3L730.9,303.1L728.6,303.2L724.2,300.9L724.1,299.4L722.6,298.7L723.4,297.5L722.7,296.9L717.8,303.5L714.9,304.5L711.9,307.5L711.5,309.7L709.4,311L709.3,312.7L707.9,314.1L706.1,314.6L705.6,316.5L704.6,316.9L697.7,321.1L726.6,317.8L726.8,316.8L731.4,316.3L731.1,317L760.5,313.5L799.9,306.2L829,300.1L828.4,298.9L828.8,298.8L829.7,299.7L829.6,298.3L829.3,296.4L830.9,297.6L831.8,299.7L831.8,298.4L828.4,292.9L828.4,291.7L827.7,290.9L826.4,291.6L826.9,293L826.1,293L825.7,292L825.1,292.9L824.2,291.8L822.1,291.7L821.9,292.4L823.4,294.5L822,293.8L821.5,292.8L821.1,293.6L820.3,293.7L818.8,295.4L819.1,293.8L819.1,292.4L817.6,291.7L815.8,291.2L815.6,289.5L815,288.2L814.4,289.3L812.7,288.3L810.7,288.6L810.9,287.7L812.4,287.5L813.3,288L815,287.2L815.9,287.6L816.4,288.6L816.4,289.3L818.3,289.7L818.6,290.6L819.5,291L820.4,292.2L821.8,290.6L822.4,290.6L822.3,288.5L821,289.5L820.4,288.6L821.9,288.4L820.7,287.5L819.5,288.1L819.4,286.4L817.7,286.6L815.5,285.5L813.7,283.3L817.3,285.5L818.2,285.8L819.9,285L818.2,284.1L818.8,283.5L817.8,283L818.6,282.8L818.3,281.9L819.4,282.8L819.8,282L820.2,283.3L821.4,284.1L822,283.6L821.5,283L821.4,280.5L820.3,280.4L818.7,279.6L819.6,278.5L817.6,278.4L817.2,277.9L815.8,278.5L814.4,277.7L813.9,276.5L811.8,275.3L809.7,273.5L807.5,271.6L810.5,272.9L811.4,274.1L813.5,274.8L815.8,277.3L816,275.6L816.6,276.9L818.9,277.4L818.9,273.4L818.1,272.3L819.2,272.7L819.3,271.1L816.2,269.7L814.6,269.5L813.3,269.3L813.6,268.1L812.1,267.8L812,267.2L810.2,267.2L810,268L809.3,267L806.6,267L805.6,266.6L805.4,265.6L804.2,265L803.8,263.5L803.2,263.1L802.5,264.2L801.6,264.4L800.7,265.1L799.2,265.1L798.3,263.8L798.7,260.7L799.2,258.3L799.8,258.8L800.1,258.4ZM822,270L822.9,269.9L822.9,269.3L822.1,269.4L822,270ZM829.5,284.2L828.5,286.9L829.7,285.6L829.5,284.2ZM827.7,268.9L828.4,269.2L828.2,271.1L827.7,270.6L826.4,271.6L827.4,272L825.6,276.4L825.7,284.5L827.6,287.6L828.1,286.1L828.5,283.4L828.2,281.1L828.9,280.2L828.7,278.8L829.9,278.2L829.3,277.7L829.8,277L830.6,278.1L830.4,279.2L830,283.1L831.1,280.9L831.5,277.8L831.6,274.8L831.3,272.8L831.9,270.5L833,268.7L833.1,266.5L833.4,265.6L828.8,267.2L828.1,268L827.7,268.9Z" style="fill:rgb(230,230,230);fill-rule:nonzero;stroke:rgb(148,148,148);stroke-width:0.5px;"/>
        <path d="M161.9,83.6L162.6,87.6L161.5,91.9L131.2,84.6L128.4,85.6L123,84.7L121.2,83.8L119.7,85L116.4,84.6L111.9,85.1L111,85.8L106.8,85.4L106,83.8L104.8,83.6L100.4,84.9L98.8,83.8L96.6,84.6L96.4,82.8L94.1,81.6L92.6,81.4L91.6,80.3L88.6,80.6L87.4,79.8L86.2,79.8L85,80.7L79.5,81.4L72.9,77.2L74,71.6L73.6,67.5L70.4,63.8L66.7,63.9L66.3,62.8L66.7,61.6L66,60.8L65,60.9L62.9,59.4L61.7,59.8L59.7,59.7L59,58.2L57.4,57.9L59.9,50.4L59.2,56.4L59.7,56.9L59.7,54.9L60.5,54.7L61.6,57L61.1,54.8L62.3,50.6L64.1,51L63,49L62,49.3L60.5,48.9L60.7,44.7L60.9,46.2L61.8,46.7L62.4,45.1L65.6,45.1L63.4,43.9L61.7,42L60.3,43.6L61.5,40.5L61.2,35.9L61,32.3L61.9,26.2L61.4,24.2L60,22.1L60.1,18.1L60.5,15.4L62.5,13.1L61.8,11.7L62,11.1L62.9,11.2L70.7,18.8L75.4,20.7L80.5,23.2L83.7,23.1L83.9,26.1L84.9,24.5L85.6,24.5L86.2,27.2L86.7,24.6L88.1,24.4L88.6,25.1L87.5,25.7L87.6,27.3L88.3,25.8L89.4,25.8L89,28.4L87.9,27.6L88.3,29L88.2,30.5L87.4,31.2L84.9,34.1L86.1,30.7L84.5,31.1L84.1,33.2L80.3,36L79.9,37L77.8,39.2L77.7,40.2L79.9,40.2L82.3,40L82.8,39.1L78.9,39.6L78.9,39L81.5,36.2L83.3,35.4L85.2,35.2L86.2,33.6L89.2,31.3L89.2,29.9L90.3,29.9L90.4,33.9L88.9,33.9L88.3,34.7L87.2,33.8L87.5,34.9L87.5,36.6L86.8,37.3L86.5,35.7L85.7,36.5L86.4,37.1L85.5,38.2L86.8,38.2L87.5,37.7L87.6,39.7L86.6,41.6L85.7,42.6L85.6,44.4L84.6,44.2L84.4,42.8L85.3,41.7L84.5,41.2L83.7,41.9L83,44.1L82.2,45L82.1,43L82.9,41.9L82.7,40.8L81.5,42L81.6,44.2L81,44.6L78.9,44.2L77.6,45.4L79.8,44.8L79.6,47L80.6,45.2L81,46.6L81.5,45.6L82.2,47.4L82.9,47.4L83.6,46.6L84.2,46.5L86.2,44.6L86.4,43.4L87.2,44L87.5,44.9L88.2,44.6L88.3,43.4L89.6,43.4L89.8,40.5L89.7,37.8L90.6,38.1L89.9,36L91.3,35.2L91.5,32.8L93.8,30.6L94.8,30.7L95.1,29.3L93.9,27.9L93.8,24.4L93,25.3L93.7,28.2L93.1,28.3L92.5,26.4L91.9,25.9L92.2,23.6L94,23.5L94.3,24.2L94.6,22.6L93,20.9L92.4,19.3L92.2,21.3L93.1,22.4L92.4,22.8L91.4,22L89.6,23.3L91.1,23.8L91.3,26.2L91,28L91.9,26.7L93.3,29L92.9,30.9L91.4,30.9L91.4,29.7L89.9,28.5L90.4,25.5L88.5,22.9L91.2,19.9L91.8,15.8L92.7,15.8L94.1,19L94.1,16.4L95.3,16.7L95.3,13.4L94.4,12.6L93.2,15.1L92.2,12.1L93.5,12L92,7.1L93.9,6.5L119.3,14L151,22L174.6,27.5L161.9,83.6ZM83.2,44.2L83.7,44.2L83.8,45L83.3,45.3L83.4,45.9L82.7,46.3L82.5,45.4L83,45L83.2,44.2ZM88.2,39.9L87,41.8L86.9,42.6L87.3,42.8L87.8,42.2L88.9,42.3L88.2,39.9ZM87.8,18.3L88.3,18.9L89.6,18.6L89.8,17.6L91,15.8L90,15.4L89.3,17L89.2,15.4L88.1,15.6L87.4,17L87.8,18.3ZM91,12.8L91.7,14.3L90.8,14.5L90,14.9L89.8,12.5L91,12.8ZM88.3,11.2L87.2,11L87.7,12.4L88.3,11.2ZM87.3,13.7L88.1,14.1L87.7,15.2L89.4,14.7L89.2,12.5L88.3,12.3L87.3,13.7ZM84.6,13.3L84.9,16L86.5,17.3L87.1,15.4L86,13.2L84.6,13.3ZM86.5,12.2L85.4,11.2L84.5,11.3L86.3,12.8L86.5,12.2ZM89.7,5.2L88.5,5.2L88.5,6L89.7,6.6L89.7,5.2ZM88.8,37.7L89.2,35L88.1,35L87.9,36.9L88.8,37.7Z" style="fill:rgb(169,174,214);fill-rule:nonzero;stroke:rgb(148,148,148);stroke-width:0.5px;"/>
        <path d="M723.4,297.5L722.6,298.7L724.1,299.4L724.2,300.9L728.6,303.2L730.9,303.1L732.8,301.3L733.6,299.6L736.6,301.4L742.1,299L742.6,298.1L741.8,297.6L742.4,296.2L743.9,297.2L748.2,294.1L748.9,295.2L751.2,293.2L751.1,291.8L752.6,289.9L751.1,288.7L752.1,285.4L755.8,279.1L755.4,277.2L757.5,275L757.1,273.5L758.5,271.8L758.6,267.1L760.9,267.8L762.2,269.7L765,270.2L766.3,268.6L768.6,260.1L771,261.2L772,258.7L772.9,257.9L774.3,256.1L775.2,255.3L775.7,253.2L776.9,252.4L776.8,249.5L777.6,247.2L776.7,245.6L776.9,244.7L786.9,249.9L787.4,247.6L787.8,246L788.2,245.3L787.3,244.9L787.5,243.3L786.5,242.8L786.3,242.1L785.6,242.1L784.8,240.9L785,239.9L782.4,240.3L780.2,238.7L778.8,239L777.9,240.4L776.6,240.4L774.9,243.3L771.6,243.7L769.7,242.7L767.1,246.5L764.9,246.2L761.8,250.1L760.9,251.7L759.1,253.3L757.4,241.9L740,244.8L736.8,225.1L734.6,226.3L736,228.4L735.9,230.6L736.5,232.6L735.4,236L735.3,241.4L734.3,245L734.8,246.1L734.4,248.3L733.3,248.8L731.3,252.1L729.5,254.1L728.9,254.1L727.1,255.8L725.8,254.6L724.3,256.4L724,257.6L722.7,257.6L721.4,259.8L721.5,261.9L720.5,262.4L721.9,263.5L721.9,265.4L720.9,265.6L720.2,266.4L719.2,266.9L718.6,264.8L717,264.3L716,266.6L715.7,268.8L714.6,270.1L715.9,273.7L714.4,274.5L714,278L712.5,278L709.3,279.4L709.2,280.5L709.8,281.5L709.2,285.1L711.1,286.7L711.9,287.8L712.9,288.4L712.8,289.3L717.2,294.9L718.6,294.9L720.1,296.7L721.3,297L722.7,296.9L723.4,297.5Z" style="fill:rgb(230,230,230);fill-rule:nonzero;stroke:rgb(148,148,148);stroke-width:0.5px;"/>
        <path d="M611,144L608.1,144.8L608.3,147.1L605.9,150.5L605.7,153.6L606.3,154.3L607.1,153.6L607.6,152L609.6,150.9L611.2,146.7L614.7,145.6L615.5,142.3L616.2,141.4L616.6,139.3L618.4,138.2L618.4,136.7L619.4,135.8L620.8,135.9L620.8,137.9L619.8,138L620.3,139.2L619.6,141.4L619,141.5L617.8,146L617.1,146.5L614.3,153.7L614,157.9L614.6,159.9L614.7,161.2L612.3,163.1L612.6,165L611.7,168.1L612,169.7L612.4,173.4L611.3,177.5L609.8,182.5L610.8,184L610.5,184.3L611.3,186L610.8,187.1L611.9,188L611.9,190.7L613.2,192.2L612.8,195.2L613.1,199.2L567.2,202L565.9,199.2L562.6,198.5L559.9,197L557.9,191.5L558,189L559.6,185.7L559,184.6L556.9,183L556.7,180.4L555.6,175.9L555.4,172.9L553.2,169.9L550.4,169.2L545.2,165.6L544.6,162.3L538.3,159.2L538.1,157.9L534.8,157.9L532.6,155.3L530.6,154L531.3,148.9L530.4,147.3L530.9,141.9L531.9,140.1L531.6,137.4L530.4,136.1L528.6,135.8L528.6,134.1L531.4,128.3L537.3,124.4L536.9,111.4L537.8,111.8L538.4,111.3L538.5,110.2L539.4,109.6L540.8,110.8L541.5,110.7L544.1,110.7L550.9,108.1L551.2,107.1L552.4,107.1L553.1,105.9L553.5,106.7L555.3,105.8L557.1,104.1L557.4,104.6L558.4,103.6L560.6,105.2L559.8,106.8L558.6,108.2L559.1,109.7L557.7,111.3L558.1,112.2L560.4,111.1L560.4,109.7L563.7,111.6L567.5,113L570.5,116.8L587.5,120.6L588.9,121.6L592.9,122.4L593.6,122.9L596.4,122.7L601.3,123.5L602.7,125L601.7,126L602.5,126.8L606.3,127.5L607.5,128.7L607.6,133.1L606.3,135.9L608.3,136L609.3,135.2L610.2,136L609.1,139.1L610.1,140.7L611.3,141L611,144ZM561.5,106.7L561,106.8L559.5,108.4L559.7,108.9L561.2,108.3L561.2,107.7L562.1,107.4L561.5,106.7ZM563.1,105.6L562.1,105.9L561.9,106.6L562.8,106.5L563.1,105.6ZM561.8,104L561.6,104.9L563.3,104.9L563.9,104.5L564,103.5L561.8,104ZM564.6,101L564.3,102.9L565.5,102.4L565.6,101L564.6,101ZM622.9,132.9L620.9,133.2L620.5,134.5L621.8,136.2L622.9,132.9Z" style="fill:rgb(85,92,174);fill-rule:nonzero;stroke:rgb(148,148,148);stroke-width:0.5px;"/>
        <path d="M355.3,143.7L304.3,138.4L247,130.5L245,141.2L236.5,196L233.2,217.9L265.3,222.7L310.2,228.4L347.7,231.8L351.4,187.6L355.3,143.7Z" style="fill:rgb(169,174,214);fill-rule:nonzero;stroke:rgb(148,148,148);stroke-width:0.5px;"/>
        <path d="M803.5,252L800.9,250.2L799.9,251.9L800.4,252.3L800.8,252.4L801.4,252.9L801.7,253.6L801.6,254.1L801.8,254.6L803.5,252Z" style="fill:rgb(208,208,208);fill-rule:nonzero;stroke:rgb(148,148,148);stroke-width:0.5px;"/>
    </g>
    <g>
        <path d="M687.6,447.4L638.8,452.5L638.3,455.4L640.8,458.2L642.5,458.9L643.4,460.1L643,467.4L641.9,468" style="fill:none;fill-rule:nonzero;stroke:rgb(148,148,148);stroke-width:0.5px;"/>
        <path d="M666.6,361.1L679.5,406.9L682.4,413L684.2,414.9L684.2,418.1L685.9,419.1L686.1,420.2L683.9,424L683.6,427.7L683.1,430.3L685.5,436L684.9,442.3L685.4,443.7L686.9,445.2L687.6,447.4" style="fill:none;fill-rule:nonzero;stroke:rgb(148,148,148);stroke-width:0.5px;"/>
        <path d="M620.9,365.1L622.2,367.1L620.9,434.1L625.3,467.3" style="fill:none;fill-rule:nonzero;stroke:rgb(148,148,148);stroke-width:0.5px;"/>
        <path d="M620.9,365.1L666.6,361.1" style="fill:none;fill-rule:nonzero;stroke:rgb(148,148,148);stroke-width:0.5px;"/>
        <path d="M516.7,414.2L569,412.9" style="fill:none;fill-rule:nonzero;stroke:rgb(148,148,148);stroke-width:0.5px;"/>
        <path d="M591.7,344.9L580.5,345.7L583.3,340.6L585,339.1L585,336.9L583.4,334.4L543.6,336.4L504.5,337.1" style="fill:none;fill-rule:nonzero;stroke:rgb(148,148,148);stroke-width:0.5px;"/>
        <path d="M569,412.9L570.2,411.4L570.7,408.4L569.2,406.1L568.7,403.9L569.6,403.2L569.6,402.4L567.9,401.3L567.8,400.6L569.4,399.7L568.2,398.6L569.9,391.5L573.3,389.9L573.3,389.1L572.2,387.7L575.1,382.3L577,382.3L578.5,381.1L578.2,375.9L581.3,371.4L583.1,370.8L582.6,367.7" style="fill:none;fill-rule:nonzero;stroke:rgb(148,148,148);stroke-width:0.5px;"/>
        <path d="M507.9,400.5L508.6,361.5L504.5,337.1" style="fill:none;fill-rule:nonzero;stroke:rgb(148,148,148);stroke-width:0.5px;"/>
        <path d="M582.6,367.7L584.2,367L585.1,364.8L586.3,365.3L587,364.3L586.2,363.6L586.5,362.1L585.4,361.2L586,360.2L585.9,358.7L584.8,358.6L585.6,357.8L586.9,358.6L587.2,357.2L586.8,356.1L586.9,355.4L588.9,356L588.5,354.5L590.1,353.2L589.6,352.3L588.5,352.4L587.9,351.5L588.8,350.6L590.4,350.4L590.9,349.6L592.3,349.4L592.2,348.6L591.3,347.7L591.3,347.2L592.8,347.2L593.2,346.5L591.8,345.5L591.7,344.9" style="fill:none;fill-rule:nonzero;stroke:rgb(148,148,148);stroke-width:0.5px;"/>
        <path d="M507.9,400.5L510.5,402.8L513.3,401.5L516.5,402.3L516.7,414.2" style="fill:none;fill-rule:nonzero;stroke:rgb(148,148,148);stroke-width:0.5px;"/>
        <path d="M149,338.1L148.1,340.2L149.4,343.6L150.8,345.4L152,351.2L154.3,353.7L154.7,355.6L153.4,356.9L148.6,358.6L146.2,362.2L144.6,369.2L142.2,372.4L140.6,372.7L139.5,379.6L140.6,381.2L142.4,381.4L143.4,383L142.6,385.4L139.6,387.6L137.4,387.5" style="fill:none;fill-rule:nonzero;stroke:rgb(148,148,148);stroke-width:0.5px;"/>
        <path d="M253.8,311L236.4,435.1" style="fill:none;fill-rule:nonzero;stroke:rgb(148,148,148);stroke-width:0.5px;"/>
        <path d="M167.6,296.8L164.2,314.3L161.8,317.2L159.8,317.2L158.6,314.5L154.9,313.1L151.4,313.7L150.4,327.3L150.9,332.2L150.4,335.1L149,338.1" style="fill:none;fill-rule:nonzero;stroke:rgb(148,148,148);stroke-width:0.5px;"/>
        <path d="M167.6,296.8L213.8,305L253.8,311" style="fill:none;fill-rule:nonzero;stroke:rgb(148,148,148);stroke-width:0.5px;"/>
        <path d="M93.9,166.5L77.5,229.6L78.6,233.1L149,338.1" style="fill:none;fill-rule:nonzero;stroke:rgb(148,148,148);stroke-width:0.5px;"/>
        <path d="M27.8,147.9L93.9,166.5" style="fill:none;fill-rule:nonzero;stroke:rgb(148,148,148);stroke-width:0.5px;"/>
        <path d="M379.4,256.3L374.6,323.3" style="fill:none;fill-rule:nonzero;stroke:rgb(148,148,148);stroke-width:0.5px;"/>
        <path d="M347.7,231.8L380.8,234.2L379.4,256.3" style="fill:none;fill-rule:nonzero;stroke:rgb(148,148,148);stroke-width:0.5px;"/>
        <path d="M253.8,311L306.4,317.5L358.1,322.3" style="fill:none;fill-rule:nonzero;stroke:rgb(148,148,148);stroke-width:0.5px;"/>
        <path d="M358.1,322.3L374.6,323.3" style="fill:none;fill-rule:nonzero;stroke:rgb(148,148,148);stroke-width:0.5px;"/>
        <path d="M265.3,222.7L253.8,311" style="fill:none;fill-rule:nonzero;stroke:rgb(148,148,148);stroke-width:0.5px;"/>
        <path d="M265.3,222.7L310.2,228.4L347.7,231.8" style="fill:none;fill-rule:nonzero;stroke:rgb(148,148,148);stroke-width:0.5px;"/>
        <path d="M843.8,171.3L854.3,168.9L854.8,169.6L855.7,169.3L855.7,168.6L870.6,165.2L870.7,165.5" style="fill:none;fill-rule:nonzero;stroke:rgb(148,148,148);stroke-width:0.5px;"/>
        <path d="M846.6,194.7L844.9,192.5L848.4,189.1L846.6,187.6L843.8,171.3" style="fill:none;fill-rule:nonzero;stroke:rgb(148,148,148);stroke-width:0.5px;"/>
        <path d="M870.7,165.5L873.9,177.8L873.5,178.9L873.9,180.7" style="fill:none;fill-rule:nonzero;stroke:rgb(148,148,148);stroke-width:0.5px;"/>
        <path d="M801.8,254.6L803.5,252L800.9,250.2L799.9,251.9" style="fill:none;fill-rule:nonzero;stroke:rgb(148,148,148);stroke-width:0.5px;"/>
        <path d="M799.9,251.9L800.4,252.3L800.8,252.4L801.4,252.9L801.7,253.6L801.6,254.1L801.8,254.6" style="fill:none;fill-rule:nonzero;stroke:rgb(148,148,148);stroke-width:0.5px;"/>
        <path d="M817.9,230.1L825.5,257.2L836.4,254.9" style="fill:none;fill-rule:nonzero;stroke:rgb(148,148,148);stroke-width:0.5px;"/>
        <path d="M823.8,227.2L822.8,229.4L822.5,231.5" style="fill:none;fill-rule:nonzero;stroke:rgb(148,148,148);stroke-width:0.5px;"/>
        <path d="M817.9,230.1L819.1,228L820.6,226.9L822.2,226.6L823.8,227.2" style="fill:none;fill-rule:nonzero;stroke:rgb(148,148,148);stroke-width:0.5px;"/>
        <path d="M687.6,447.4L690.9,453.4L741,450.1L741.6,453.3L742.6,454.4L744.7,453.8L745.2,449.5L743.8,447.4L743.8,444.9L746,443.5L747.7,444.4L751.7,445.1L755.3,444.8" style="fill:none;fill-rule:nonzero;stroke:rgb(148,148,148);stroke-width:0.5px;"/>
        <path d="M689.5,358.2L710.9,355.2" style="fill:none;fill-rule:nonzero;stroke:rgb(148,148,148);stroke-width:0.5px;"/>
        <path d="M710.9,355.2L710.8,357.1L708.9,358.1L707.5,361.3L707.7,362.6L713.8,366.4L716.4,366.1L719.5,370.1L719.9,371.8L724.1,376.9L726.7,378.6L728.1,378.8L730.3,380.4L731.4,382.6L733.4,384.2L735.2,384.7L737.9,387.4L738,388.8L740.6,391.6L745.6,393.9L749.2,400.6L749.5,403.3L753.4,405.4L755.9,410.2L756.7,413.3L760.9,413.7" style="fill:none;fill-rule:nonzero;stroke:rgb(148,148,148);stroke-width:0.5px;"/>
        <path d="M666.6,361.1L689.5,358.2" style="fill:none;fill-rule:nonzero;stroke:rgb(148,148,148);stroke-width:0.5px;"/>
        <path d="M556.8,249.7L557.5,249L557.6,246.7L556.9,245.8L557.9,244.3L560.6,243.4L561.6,242.2L561.6,239.8L563.3,237.4L563.8,236.9L563.9,233.4L563,232L562,231.7L560.9,230.1L561.9,226.1L564.9,225.3L567.3,225.3L571.5,223.5L573.2,221.3L573.3,218.9L574.4,217.6L575.7,214.4L575.6,211.8L572.8,208.3L571.6,208.3L570.7,207.2L570.9,205.6L569.2,203.9L566.7,202.6L567.2,202" style="fill:none;fill-rule:nonzero;stroke:rgb(148,148,148);stroke-width:0.5px;"/>
        <path d="M473.6,182L501.8,182L538.1,181.1L556.7,180.4" style="fill:none;fill-rule:nonzero;stroke:rgb(148,148,148);stroke-width:0.5px;"/>
        <path d="M484.5,246.8L510.4,246.9L537.6,245.7L551.9,244.9L553.6,246.2L554.2,247.8L555.3,248.9L556.8,249.7" style="fill:none;fill-rule:nonzero;stroke:rgb(148,148,148);stroke-width:0.5px;"/>
        <path d="M484.5,246.8L482.7,242.4L483.4,240.2L482.6,236.9L482.8,234L481.5,233.3L481.1,227.2L478.3,222.2L478.1,218.5L475.9,214.2L474.6,210.5L474.6,209.1L474,207.4L474,205.1L473.5,204.2" style="fill:none;fill-rule:nonzero;stroke:rgb(148,148,148);stroke-width:0.5px;"/>
        <path d="M473.5,204.2L472.8,202.5L472.5,201.2L471.2,200L472.2,195.7L473.9,190.6L473.2,188.6L471.9,188.2L471.5,186.6L472.5,186.1L472.6,185L471.3,183.5L471.4,181.9L473.6,182" style="fill:none;fill-rule:nonzero;stroke:rgb(148,148,148);stroke-width:0.5px;"/>
        <path d="M567.2,202L565.9,199.2L562.6,198.5L559.9,197L557.9,191.5L558,189L559.6,185.7L559,184.6L556.9,183L556.7,180.4" style="fill:none;fill-rule:nonzero;stroke:rgb(148,148,148);stroke-width:0.5px;"/>
        <path d="M188.8,30.5L184,52.5L187.7,59.9L186.1,64.7L189.7,69.5L191.6,70.2L195.5,78.5L195.5,80.6L197.8,83.6L198.7,83.6L200.1,85.7L203.3,85.7L203.3,87.3L196.2,104.3L195.7,108.4L197.1,108.9L198.7,111.5L201.5,110.1L205.1,107.7L207,109.6L207.5,112.1L207,115.3L209.5,125L212.1,128.5L214.4,129.9L214.8,132.9L214.8,137L217.1,139.3L218.7,137L225.6,138.6L227.7,137.4L236.7,139.1L239.5,135.8L241.3,135.2L242.5,137L244.1,141.1L245,141.2" style="fill:none;fill-rule:nonzero;stroke:rgb(148,148,148);stroke-width:0.5px;"/>
        <path d="M140.9,177.7L165.3,183.1L188.6,187.8" style="fill:none;fill-rule:nonzero;stroke:rgb(148,148,148);stroke-width:0.5px;"/>
        <path d="M140.9,177.7L149.4,140.4L152.3,134.6L152.7,132.5L153.5,131.6L152.6,129.6L149.7,128.4L149.9,124.2L153.9,118.4L156.4,117.6L158,115.3L157.9,113.7L159.7,112.1L162.9,106.6L167.1,101.8L166.6,98.6L163.1,95.5L161.5,91.9" style="fill:none;fill-rule:nonzero;stroke:rgb(148,148,148);stroke-width:0.5px;"/>
        <path d="M236.5,196L188.6,187.8" style="fill:none;fill-rule:nonzero;stroke:rgb(148,148,148);stroke-width:0.5px;"/>
        <path d="M174.6,27.5L161.9,83.6L162.6,87.6L161.5,91.9" style="fill:none;fill-rule:nonzero;stroke:rgb(148,148,148);stroke-width:0.5px;"/>
        <path d="M245,141.2L236.5,196" style="fill:none;fill-rule:nonzero;stroke:rgb(148,148,148);stroke-width:0.5px;"/>
        <path d="M619.4,215.7L623.5,265.9L622.5,271.1L622.5,273.1L624.9,276.6L624.9,277.3L624.6,278.2L625.5,280.1L625.2,282.5L623.6,284.3L622.3,288.5L618.5,293.8L618.4,300.8L617.4,300.8L618.3,302.7" style="fill:none;fill-rule:nonzero;stroke:rgb(148,148,148);stroke-width:0.5px;"/>
        <path d="M599.9,322.5L599.6,320.7L603.6,317L610.5,320L612,319.7L612.4,317.3L610.7,315.5L611.1,312.2L612.1,311.7L613.3,312.3L613.9,311.1L617.6,310.5L617.7,309.6L616.2,307.4L616.1,306.3L618.3,303.6L618.3,302.7" style="fill:none;fill-rule:nonzero;stroke:rgb(148,148,148);stroke-width:0.5px;"/>
        <path d="M599.9,322.5L597.1,322.5L595.7,321L593.9,317.2L593.9,315.3L594.7,314.7L594.8,313.4L593.1,311.5L592.2,309L589.5,304.9L584.7,303.6L577.3,296.5L576.9,294.1L579.7,286.5L579.3,284.6L580.5,283.5L580.5,282.2L577.7,280.7L574.7,280L571.3,281.2L570,278.9L570.6,277L569.9,274.6L561.3,266.2L559.1,264.7L556.6,258.8L555.4,253.4L556.8,249.7" style="fill:none;fill-rule:nonzero;stroke:rgb(148,148,148);stroke-width:0.5px;"/>
        <path d="M567.2,202L613.1,199.2" style="fill:none;fill-rule:nonzero;stroke:rgb(148,148,148);stroke-width:0.5px;"/>
        <path d="M618.3,302.7L619.4,303.5L620,302.5L619.3,300.8L623.9,300.3L624.1,301.5L625.2,301.7L625.6,300.8L625,299.5L625.3,298.7L626.6,299.5L628.3,299.1L630,299.7L633.4,301.8L635.2,299L638.7,296.8L641.7,300.1L643.3,298L643.6,295.3L647.4,293L647.6,294.3L649.5,295.5L652.5,295.3L653.7,294.6L653.8,291.2L656.3,287.5L660.9,283.1L660.8,281.4L662,277.6L664.2,278.6L670.9,274.1L670.5,272.4L669,270.3L670,268.4" style="fill:none;fill-rule:nonzero;stroke:rgb(148,148,148);stroke-width:0.5px;"/>
        <path d="M630.9,213.2L663.3,209.8L663.4,211.2" style="fill:none;fill-rule:nonzero;stroke:rgb(148,148,148);stroke-width:0.5px;"/>
        <path d="M670,268.4L663.4,211.2" style="fill:none;fill-rule:nonzero;stroke:rgb(148,148,148);stroke-width:0.5px;"/>
        <path d="M504.3,326.3L503.8,278.2L500.6,277.5L498,272.8L495.5,270.3L496,268L498.7,265.4L498.8,264.2L497.3,262.1L496.4,263.1L494.4,262.5L491.5,259.5" style="fill:none;fill-rule:nonzero;stroke:rgb(148,148,148);stroke-width:0.5px;"/>
        <path d="M379.4,256.3L415.4,258.3L459.1,259.5L491.5,259.5" style="fill:none;fill-rule:nonzero;stroke:rgb(148,148,148);stroke-width:0.5px;"/>
        <path d="M374.6,323.3L442.3,326.2L504.3,326.3" style="fill:none;fill-rule:nonzero;stroke:rgb(148,148,148);stroke-width:0.5px;"/>
        <path d="M596.7,333.5L597.7,330.8L599.1,331.7L599.8,331.3L601,327.2L600,326.2L601,324.2L601.2,323.3L599.9,322.5M594.1,333.8L593.4,333.1L593.6,332.1L594.7,332.1L595.4,332.8L595.1,333.8" style="fill:none;fill-rule:nonzero;stroke:rgb(148,148,148);stroke-width:0.5px;"/>
        <path d="M670,268.4L671.3,268.9L673.5,269L675.4,268.2L678.3,269.4L680.5,272.8L680.5,273.8L684.6,274.5L686.9,274.3L688.8,276.4L691,276.6L691,275.6L692.9,274.8L695.9,275.6L697.1,276.4L698.4,275.7L699.3,275.7L699.9,274L703.3,272.2L703.8,273L704.6,275.9L708.1,277.3L709.3,279.4" style="fill:none;fill-rule:nonzero;stroke:rgb(148,148,148);stroke-width:0.5px;"/>
        <path d="M596.7,333.5L620,332L620.6,331.1L619.4,327.9L623.1,327.9L623.8,328.5L646.4,326.5L649,325.7L666.4,324.7L671.6,323.9L692.1,322.5L697.7,321.1M594.1,333.8L595.1,333.8" style="fill:none;fill-rule:nonzero;stroke:rgb(148,148,148);stroke-width:0.5px;"/>
        <path d="M697.7,321.1L704.6,316.9L705.6,316.5L706.1,314.6L707.9,314.1L709.3,312.7L709.4,311L711.5,309.7L711.9,307.5L714.9,304.5L717.8,303.5L722.7,296.9" style="fill:none;fill-rule:nonzero;stroke:rgb(148,148,148);stroke-width:0.5px;"/>
        <path d="M709.3,279.4L709.2,280.5L709.8,281.5L709.2,285.1L711.1,286.7L711.9,287.8L712.9,288.4L712.8,289.3L717.2,294.9L718.6,294.9L720.1,296.7L721.3,297L722.7,296.9" style="fill:none;fill-rule:nonzero;stroke:rgb(148,148,148);stroke-width:0.5px;"/>
        <path d="M569,412.9L568.4,414.3L570,421.4L571.2,422.4L570.7,424.1L573.1,426.6L573.1,429.9L571.1,429.9L572.9,432.4L566.9,440.8L564.5,445.6L562.8,457.5L598.8,455.5L598.7,456.9L597.7,458.3L596.8,462.9L601.6,469.7L601.3,471L602.5,472.8L603.1,473.5" style="fill:none;fill-rule:nonzero;stroke:rgb(148,148,148);stroke-width:0.5px;"/>
        <path d="M516.7,414.2L517.2,434.1L517.9,437.5L520.5,440.3L521.2,445.7L525,450.3L525.8,454.6L526.8,454.6L526.7,461.9L523.4,468.3L524.7,470.6L523.4,472.1L524.1,475.1L524,479.4L521.8,482.9L521.7,483.7L520,484.9L521,486.7L522.2,487.8" style="fill:none;fill-rule:nonzero;stroke:rgb(148,148,148);stroke-width:0.5px;"/>
        <path d="M856,152.6L874.4,148.8L875.4,147.3L875.7,145.6L877.6,145L878.1,143.9L879.8,142.8L881.1,143.1" style="fill:none;fill-rule:nonzero;stroke:rgb(148,148,148);stroke-width:0.5px;"/>
        <path d="M843.8,171.3L843.1,170.3L843.6,155.3" style="fill:none;fill-rule:nonzero;stroke:rgb(148,148,148);stroke-width:0.5px;"/>
        <path d="M870.7,165.5L877.2,163.5L877.9,166.1L878.7,166.1L879.3,168.3L881.9,169.6L883.2,170.7L884.6,173.7" style="fill:none;fill-rule:nonzero;stroke:rgb(148,148,148);stroke-width:0.5px;"/>
        <path d="M843.6,155.3L856,152.6" style="fill:none;fill-rule:nonzero;stroke:rgb(148,148,148);stroke-width:0.5px;"/>
        <path d="M757.4,241.9L817.9,230.1" style="fill:none;fill-rule:nonzero;stroke:rgb(148,148,148);stroke-width:0.5px;"/>
        <path d="M822.9,269.3L822.1,269.4M835.3,265.1L834.7,265.4M833.4,265.6L828.8,267.2L828.1,268M799.9,251.9L799.3,251.3L798.3,251.3L797.7,251.2L797.3,250.8L797.4,250.3L795.7,249.7L794.9,250L793.7,249.9L793,249.2L792.5,249L792.3,248.3L792.9,247.5L792.9,246.6L791.7,246.4L790.7,245.5L789.8,245.6L788.2,245.3M799.8,258.8L800.1,258.4L799.4,257.4L800.4,257.3L801.4,256.4L801.8,254.6" style="fill:none;fill-rule:nonzero;stroke:rgb(148,148,148);stroke-width:0.5px;"/>
        <path d="M757.4,241.9L759.1,253.3L760.9,251.7L761.8,250.1L764.9,246.2L767.1,246.5L769.7,242.7L771.6,243.7L774.9,243.3L776.6,240.4L777.9,240.4L778.8,239L780.2,238.7L782.4,240.3L785,239.9L784.8,240.9L785.6,242.1L786.3,242.1L786.5,242.8L787.5,243.3L787.3,244.9L788.2,245.3" style="fill:none;fill-rule:nonzero;stroke:rgb(148,148,148);stroke-width:0.5px;"/>
        <path d="M881.9,138.3L879.6,136.9L878.8,134.7L875.6,132.7L875,128.7L863.1,91.9" style="fill:none;fill-rule:nonzero;stroke:rgb(148,148,148);stroke-width:0.5px;"/>
        <path d="M663.4,211.2L684.8,207.7" style="fill:none;fill-rule:nonzero;stroke:rgb(148,148,148);stroke-width:0.5px;"/>
        <path d="M565.6,112.3L567.5,113L570.5,116.8L587.5,120.6L588.9,121.6L592.9,122.4L593.6,122.9L596.4,122.7L601.3,123.5L602.7,125L601.7,126L602.5,126.8L606.3,127.5L607.5,128.7L607.6,133.1L606.3,135.9L608.3,136L609.3,135.2L610.2,136L609.1,139.1L610.1,140.7L611.3,141" style="fill:none;fill-rule:nonzero;stroke:rgb(148,148,148);stroke-width:0.5px;"/>
        <path d="M462.3,61.3L464.7,68.6L463.6,71.4L464.4,72.8L464.1,77.9L463.6,79L466.3,88.1L467.6,90.6L468.3,104.6L469.3,107.3L468.9,113.1L471.8,120.5L472.1,126.3L472,128.4" style="fill:none;fill-rule:nonzero;stroke:rgb(148,148,148);stroke-width:0.5px;"/>
        <path d="M473.6,182L473.8,142.5L472.3,140.6L469.7,140L469.3,138.2L467.6,135.7L467.9,134.5L471,132.6L471.9,130.6L472,128.4" style="fill:none;fill-rule:nonzero;stroke:rgb(148,148,148);stroke-width:0.5px;"/>
        <path d="M556.7,180.4L555.6,175.9L555.4,172.9L553.2,169.9L550.4,169.2L545.2,165.6L544.6,162.3L538.3,159.2L538.1,157.9L534.8,157.9L532.6,155.3L530.6,154L531.3,148.9L530.4,147.3L530.9,141.9L531.9,140.1L531.6,137.4L530.4,136.1L528.6,135.8L528.6,134.1L531.4,128.3L537.3,124.4L536.9,111.4L537.8,111.8L538.4,111.3L538.5,110.2L539.4,109.6L540.8,110.8L541.5,110.7" style="fill:none;fill-rule:nonzero;stroke:rgb(148,148,148);stroke-width:0.5px;"/>
        <path d="M491.5,259.5L487.6,253.2L485.5,249.5L485.8,248.1L484.5,246.8" style="fill:none;fill-rule:nonzero;stroke:rgb(148,148,148);stroke-width:0.5px;"/>
        <path d="M504.3,326.3L504.5,337.1" style="fill:none;fill-rule:nonzero;stroke:rgb(148,148,148);stroke-width:0.5px;"/>
        <path d="M591.7,344.9L592.7,342.9L593.9,342.4L593.9,341.7L592.7,340.6L592.1,339.6L593.8,339.8L594.6,339.1L593.2,337.6L594.6,337.1L594.7,336.1L594.1,335.1L594.1,333.8M595.1,333.8L595.9,334.5L596.7,333.5" style="fill:none;fill-rule:nonzero;stroke:rgb(148,148,148);stroke-width:0.5px;"/>
        <path d="M582.6,367.7L620.9,365.1" style="fill:none;fill-rule:nonzero;stroke:rgb(148,148,148);stroke-width:0.5px;"/>
        <path d="M362.5,56.3L357.3,123" style="fill:none;fill-rule:nonzero;stroke:rgb(148,148,148);stroke-width:0.5px;"/>
        <path d="M357.3,123L355.3,143.7" style="fill:none;fill-rule:nonzero;stroke:rgb(148,148,148);stroke-width:0.5px;"/>
        <path d="M355.3,143.7L304.3,138.4L247,130.5L245,141.2" style="fill:none;fill-rule:nonzero;stroke:rgb(148,148,148);stroke-width:0.5px;"/>
        <path d="M710.9,355.2L715.3,353.3L716.6,353.2L723.9,348.9L747.1,346.7L747.5,347.2L747.3,348.6L748,348.9L749.2,347.4L752.5,350.4L752.6,353L772.3,350.2L796.8,367.3" style="fill:none;fill-rule:nonzero;stroke:rgb(148,148,148);stroke-width:0.5px;"/>
        <path d="M731.1,317L731.1,322.2L729.6,322.1L728.2,323.3L725.8,328.5L723.2,327.4L719.7,329.9L719,332L717.5,333.2L716.7,332.4L716.6,330.9L715.8,330.7L711.8,334L711.2,337.4L706.5,339.8L706,341L702.8,343.6L699.2,344.1L694.6,347.1L693.8,351.2L692.5,352.1L691,352L689.6,353.3L689.5,358.2" style="fill:none;fill-rule:nonzero;stroke:rgb(148,148,148);stroke-width:0.5px;"/>
        <path d="M731.1,317L760.5,313.5L799.9,306.2L829,300.1" style="fill:none;fill-rule:nonzero;stroke:rgb(148,148,148);stroke-width:0.5px;"/>
        <path d="M357.3,123L396.5,125.9L442.5,128L472,128.4" style="fill:none;fill-rule:nonzero;stroke:rgb(148,148,148);stroke-width:0.5px;"/>
        <path d="M351.4,187.6L402.5,191.1L440.5,192.7L443.9,195.9L445.6,196.1L447.7,198.1L449.5,198L451.3,196L452.8,196.6L453.8,195.9L454.5,196.4L455.4,196L456.1,196.4L457,196L458,196.5L459.4,195.9L461.4,196.5L462,197.6L468.1,199.8L469.3,201.1L470.2,203.7L472,204.4L473.5,204.2" style="fill:none;fill-rule:nonzero;stroke:rgb(148,148,148);stroke-width:0.5px;"/>
        <path d="M347.7,231.8L351.4,187.6" style="fill:none;fill-rule:nonzero;stroke:rgb(148,148,148);stroke-width:0.5px;"/>
        <path d="M857.9,100.1L859.1,102.4L858,105.9L860.1,108.7L859.7,110.4L859.8,111.7L858.7,113.8L857.3,114.2L856.7,115.5L854.6,116.5L853.9,118L855.3,121.4L854.8,123.9L855.3,125.4L854.3,127.3L854.7,129.2L853.4,131.1L853.6,133.3L852.9,134.4L853.6,138.9L854.3,140.4L853.8,143L854.7,144.8L854.5,147.3L854,148.6L853.9,150L856,152.6" style="fill:none;fill-rule:nonzero;stroke:rgb(148,148,148);stroke-width:0.5px;"/>
        <path d="M827.9,190.5L842.5,195.4L842.1,201.3" style="fill:none;fill-rule:nonzero;stroke:rgb(148,148,148);stroke-width:0.5px;"/>
        <path d="M823.8,227.2L825.2,225.5L826.8,224.9L828.6,221.9L830.2,219.6L833.5,217L829.3,213.8L827.2,212.7L826.2,209.9L823.5,209L823,205.4L824,204.4L824.7,202.4L823.2,200.6L826.2,195.2L826.1,193L827.9,190.5" style="fill:none;fill-rule:nonzero;stroke:rgb(148,148,148);stroke-width:0.5px;"/>
        <path d="M358.1,322.3L357.5,332.9" style="fill:none;fill-rule:nonzero;stroke:rgb(148,148,148);stroke-width:0.5px;"/>
        <path d="M284.3,431.2L282.3,429L282.6,426L317,429.6L348.8,432.2L356.7,332.9L357.5,332.9" style="fill:none;fill-rule:nonzero;stroke:rgb(148,148,148);stroke-width:0.5px;"/>
        <path d="M93.9,166.5L140.9,177.7" style="fill:none;fill-rule:nonzero;stroke:rgb(148,148,148);stroke-width:0.5px;"/>
        <path d="M188.6,187.8L167.6,296.8" style="fill:none;fill-rule:nonzero;stroke:rgb(148,148,148);stroke-width:0.5px;"/>
        <path d="M827.9,190.5L826.3,189.4L824.4,189.7L821.4,187.5L818.4,181.7L816.4,181.7L816,180.2L814.3,179.1L743.8,193L743,187" style="fill:none;fill-rule:nonzero;stroke:rgb(148,148,148);stroke-width:0.5px;"/>
        <path d="M843.6,155.3L842.5,154.3L843,152.3L840,138.1L838.1,136.6L837.2,138.2L836.3,136L837.1,134.2L834,127.5L834.3,123.7L834.7,122.7L834.1,120.7L834.5,118.5L832.3,116.2L831.8,113L832.2,111.5L830.8,110.6L831.4,108.7L830.6,107" style="fill:none;fill-rule:nonzero;stroke:rgb(148,148,148);stroke-width:0.5px;"/>
        <path d="M736.8,225.1L731.9,195.2" style="fill:none;fill-rule:nonzero;stroke:rgb(148,148,148);stroke-width:0.5px;"/>
        <path d="M709.3,279.4L712.5,278L714,278L714.4,274.5L715.9,273.7L714.6,270.1L715.7,268.8L716,266.6L717,264.3L718.6,264.8L719.2,266.9L720.2,266.4L720.9,265.6L721.9,265.4L721.9,263.5L720.5,262.4L721.5,261.9L721.4,259.8L722.7,257.6L724,257.6L724.3,256.4L725.8,254.6L727.1,255.8L728.9,254.1L729.5,254.1L731.3,252.1L733.3,248.8L734.4,248.3L734.8,246.1L734.3,245L735.3,241.4L735.4,236L736.5,232.6L735.9,230.6L736,228.4L734.6,226.3L736.8,225.1" style="fill:none;fill-rule:nonzero;stroke:rgb(148,148,148);stroke-width:0.5px;"/>
        <path d="M357.5,332.9L410.1,336.1L408.7,378.8L411.4,380.1L413.9,383.1L415.4,383.4L416.5,382.4L417.7,382.8L419.1,383.8L420.2,382.3L422.5,384L423,386.9L424.2,387.6L426.5,387.5L430,389.4L432,389.3L433.4,388.9L435.7,391.1L437.7,388.8L441.2,389.9L443.1,392.9L445.4,392.8L444.7,394.9L447,396L450,393.4L452.6,395.1L453.9,394.6L454,396.1L455.7,397.3L458,394.8L459.2,395.5L458.9,397.5L459.9,399.3L461.1,398.5L463.6,394.3L465.4,396.3L467.4,396.8L469.5,396.1L471.5,397.9L472.7,397.8L474,399L477.6,398.1L478.2,396.4L481.9,396.1L483.5,396.8L488.5,394.3L489.1,395.8L494.2,395.5L494.7,393.9L496.9,394.8L501.5,398.6L507.9,400.5" style="fill:none;fill-rule:nonzero;stroke:rgb(148,148,148);stroke-width:0.5px;"/>
        <path d="M161.5,91.9L131.2,84.6L128.4,85.6L123,84.7L121.2,83.8L119.7,85L116.4,84.6L111.9,85.1L111,85.8L106.8,85.4L106,83.8L104.8,83.6L100.4,84.9L98.8,83.8L96.6,84.6L96.4,82.8L94.1,81.6L92.6,81.4L91.6,80.3L88.6,80.6L87.4,79.8L86.2,79.8L85,80.7L79.5,81.4L72.9,77.2L74,71.6L73.6,67.5L70.4,63.8L66.7,63.9L66.3,62.8L66.7,61.6L66,60.8L65,60.9" style="fill:none;fill-rule:nonzero;stroke:rgb(148,148,148);stroke-width:0.5px;"/>
        <path d="M736.8,225.1L740,244.8L757.4,241.9" style="fill:none;fill-rule:nonzero;stroke:rgb(148,148,148);stroke-width:0.5px;"/>
        <path d="M351.4,187.6L355.3,143.7" style="fill:none;fill-rule:nonzero;stroke:rgb(148,148,148);stroke-width:0.5px;"/>
        <path d="M697.7,321.1L726.6,317.8L726.8,316.8L731.4,316.3L731.1,317" style="fill:none;fill-rule:nonzero;stroke:rgb(148,148,148);stroke-width:0.5px;"/>
        <path d="M236.5,196L233.2,217.9L265.3,222.7" style="fill:none;fill-rule:nonzero;stroke:rgb(148,148,148);stroke-width:0.5px;"/>
        <path d="M722.7,296.9L723.4,297.5L722.6,298.7L724.1,299.4L724.2,300.9L728.6,303.2L730.9,303.1L732.8,301.3L733.6,299.6L736.6,301.4L742.1,299L742.6,298.1L741.8,297.6L742.4,296.2L743.9,297.2L748.2,294.1L748.9,295.2L751.2,293.2L751.1,291.8L752.6,289.9L751.1,288.7L752.1,285.4L755.8,279.1L755.4,277.2L757.5,275L757.1,273.5L758.5,271.8L758.6,267.1L760.9,267.8L762.2,269.7L765,270.2L766.3,268.6L768.6,260.1L771,261.2L772,258.7L772.9,257.9L774.3,256.1L775.2,255.3L775.7,253.2L776.9,252.4L776.8,249.5L777.6,247.2L776.7,245.6L776.9,244.7L786.9,249.9L787.4,247.6L787.8,246L788.2,245.3" style="fill:none;fill-rule:nonzero;stroke:rgb(148,148,148);stroke-width:0.5px;"/>
    </g>
    <circle cx="801.6" cy="252.1" r="5" style="fill:rgb(230,230,230);stroke:rgb(148,148,148);stroke-width:0.5px;"/>
    <path d="M215,493L215,548L251,593M0,425L147,425L215,493L300,493L354,547L354,593" style="fill:none;fill-rule:nonzero;stroke:rgb(148,148,148);stroke-width:0.5px;"/>
</svg>
